<?xml version="1.0" encoding="utf-8"?>
<!-- Generator: Adobe Illustrator 18.0.0, SVG Export Plug-In . SVG Version: 6.00 Build 0)  -->
<!DOCTYPE svg PUBLIC "-//W3C//DTD SVG 1.1//EN" "http://www.w3.org/Graphics/SVG/1.1/DTD/svg11.dtd">
<svg version="1.1" id="Layer_1" xmlns="http://www.w3.org/2000/svg" xmlns:xlink="http://www.w3.org/1999/xlink" x="0px" y="0px"
	 width="1000px" height="1000px" viewBox="0 0 1000 1000" enable-background="new 0 0 1000 1000" xml:space="preserve">
<g>
	<path fill="none" stroke="#303030" stroke-width="40" stroke-linecap="round" stroke-linejoin="round" stroke-miterlimit="10" d="
		M176.5,226.1C98,304.1,47.7,413.9,51.1,541.7c2,72.8,22.7,141.5,57.8,201.4 M176.3,831.1c85.4,87.7,204,134.1,339.4,122.3
		C737.8,933.7,894,747.6,902.6,559.2c-4.3,0-8.3,0-12.7,0c-134.6,0-269,0-403.6,0c-28.5,0-39.7-10.9-39.7-39.1
		c0-134.6,0-269,0-403.6c0-4.3,0-8.3,0-13.5c-85.1,2.3-193,40.7-270.1,123.1 M573.9,434.1c53.5,0,336.8,0,390.6,0
		C951.2,215.5,766,50.3,571.5,41.1"/>
</g>
<circle display="none" fill="none" stroke="#878787" stroke-width="30" stroke-linecap="round" stroke-linejoin="round" stroke-miterlimit="10" cx="490.1" cy="503.6" r="391.6"/>
</svg>
