<?xml version="1.0" encoding="utf-8"?>
<!-- Generator: Adobe Illustrator 18.0.0, SVG Export Plug-In . SVG Version: 6.00 Build 0)  -->
<!DOCTYPE svg PUBLIC "-//W3C//DTD SVG 1.1//EN" "http://www.w3.org/Graphics/SVG/1.1/DTD/svg11.dtd">
<svg version="1.1" id="Layer_1" xmlns="http://www.w3.org/2000/svg" xmlns:xlink="http://www.w3.org/1999/xlink" x="0px" y="0px"
	 width="356.9px" height="73.5px" viewBox="0 0 356.9 73.5" enable-background="new 0 0 356.9 73.5" xml:space="preserve">
<g>
	<g id="XMLID_8_">
		<path id="XMLID_17_" fill="#314A9F" d="M30.2,20.4c2.4,0.7,4.5,1.7,6.3,2.9l-3.1,6.3c-1.7-1.1-3.6-1.9-5.7-2.5
			c-2-0.6-3.9-0.9-5.7-0.9c-1.8,0-3.2,0.3-4.2,1c-1,0.6-1.5,1.6-1.5,2.9s0.6,2.3,1.8,3c1.2,0.7,3.2,1.5,6,2.4
			c2.7,0.8,4.9,1.6,6.6,2.4c1.7,0.8,3.2,2,4.5,3.5c1.2,1.6,1.9,3.6,1.9,6.2c0,3.8-1.4,6.8-4.3,8.7s-6.5,3-10.7,3
			c-3,0-5.8-0.5-8.7-1.4c-2.8-1-5.2-2.3-7.1-4l3-6.1c1.7,1.5,3.7,2.6,6.2,3.5c2.4,0.9,4.8,1.3,7,1.3c1.9,0,3.5-0.3,4.6-1
			c1.2-0.7,1.8-1.7,1.8-3.2c0-1.1-0.4-2-1.1-2.7c-0.7-0.7-1.6-1.3-2.6-1.7c-1-0.4-2.5-0.9-4.5-1.5c-2.6-0.8-4.7-1.6-6.4-2.3
			c-1.6-0.8-3-1.9-4.2-3.4c-1.2-1.5-1.8-3.5-1.8-6c0-3.7,1.4-6.6,4.1-8.5c2.8-1.9,6.2-2.9,10.3-2.9C25.3,19.3,27.7,19.6,30.2,20.4z"
			/>
		<path id="XMLID_14_" fill="#314A9F" d="M74.6,24.6c3.1,3.5,4.6,8.4,4.6,14.8c0,0.6,0,1.7-0.1,3.2H49.4c0.7,3.1,2.1,5.5,4.3,7.2
			c2.2,1.8,4.8,2.6,7.9,2.6c2.1,0,4.1-0.4,6.1-1.2c1.9-0.8,3.6-1.9,5-3.4l4.5,4.8c-2,2.1-4.3,3.7-7.1,4.9c-2.8,1.2-5.8,1.7-9.1,1.7
			c-4,0-7.5-0.8-10.5-2.5c-3-1.7-5.4-4-7-7c-1.7-3-2.5-6.5-2.5-10.3c0-3.9,0.8-7.3,2.5-10.4c1.7-3,4-5.4,7-7.1
			c3-1.7,6.5-2.6,10.3-2.6C66.9,19.3,71.5,21.1,74.6,24.6z M68.5,28.9c-2-1.8-4.6-2.7-7.7-2.7c-3.1,0-5.7,0.9-7.7,2.7
			c-2,1.8-3.3,4.3-3.8,7.4h22.4C71.5,33.2,70.5,30.7,68.5,28.9z"/>
		<path id="XMLID_11_" fill="#314A9F" d="M171.8,58.9h-8.5v-6.7c-1.4,2.3-3.3,4.1-5.6,5.3c-2.3,1.2-5.1,1.8-8.2,1.8
			c-3.7,0-7-0.8-9.9-2.5c-2.8-1.7-5-4.1-6.6-7.1c-1.6-3.1-2.4-6.5-2.4-10.5c0-3.9,0.8-7.3,2.4-10.3c1.6-3,3.8-5.3,6.6-7
			c2.8-1.7,6.1-2.5,9.7-2.5c3.1,0,5.9,0.6,8.2,1.9c2.3,1.2,4.2,3,5.7,5.3V4.1l8.5,9v29.3V58.9z M158.8,48.6c2.2-2.4,3.4-5.5,3.4-9.2
			c0-3.8-1.1-6.9-3.4-9.3c-2.2-2.4-5.1-3.6-8.7-3.6c-3.5,0-6.4,1.2-8.7,3.6c-2.2,2.4-3.4,5.5-3.4,9.3c0,3.7,1.2,6.8,3.4,9.2
			c2.2,2.4,5.1,3.6,8.7,3.6C153.6,52.2,156.5,51,158.8,48.6z"/>
		<path id="XMLID_9_" fill="#314A9F" d="M120.4,23.4c2.6,2.7,3.9,6.4,3.9,11.1v24.4h-8.5V36.9c0-3-0.8-5.3-2.5-7
			c-1.7-1.7-4-2.6-6.9-2.6c-3.1,0-5.7,1.1-7.7,3c-2,2-3.1,4.5-3.4,7.7v20.9L86.7,50V34.6c0-3.2,6.5-15.5,21.4-15.9
			C112.7,18.6,117.8,20.7,120.4,23.4z"/>
	</g>
	<g>
		<path fill="#314A9F" d="M181.3,30.4v-2.6h4.8v-8.1c0-2.7,0.7-4.7,2-6.1s3.3-2.1,5.9-2.1c1,0,1.7,0,2.1,0.1l0.5,3
			c-0.6-0.1-1.4-0.2-2.4-0.2c-3.4,0-5.1,1.8-5.1,5.4v8h6.5l0.5,2.6h-7v28.4h-3V30.4H181.3z"/>
		<path fill="#314A9F" d="M202.7,58.8v-31h2l1.1,6.5c3.2-4.7,6.9-7.1,11.2-7.1l0.5,2.9c-2.4,0.2-4.7,1-6.8,2.6
			c-2.1,1.6-3.7,3.5-4.8,5.7v20.4H202.7z"/>
		<path fill="#314A9F" d="M220.6,43.3c0-4.9,1.2-8.8,3.7-11.7c2.5-3,5.6-4.4,9.5-4.4c2.6,0,4.8,0.7,6.6,2.1c1.8,1.4,3.2,3.3,4,5.6
			c0.9,2.3,1.3,4.9,1.3,7.8v0.7h-21.9c0,4.1,0.9,7.3,2.8,9.8c1.9,2.5,4.5,3.7,7.9,3.7c1.8,0,3.7-0.4,5.5-1.3c1.9-0.9,3.6-2,5.2-3.5
			l0.5,2.9c-1.5,1.4-3.3,2.4-5.2,3.3c-2,0.8-4,1.3-6.1,1.3c-4.1,0-7.4-1.4-9.9-4.3C221.9,52.2,220.6,48.2,220.6,43.3z M223.9,40.7
			h18.5c-0.1-3.2-0.9-5.8-2.4-7.9c-1.5-2.1-3.6-3.1-6.2-3.1c-2.8,0-5.1,1-6.8,3C225.3,34.6,224.3,37.3,223.9,40.7z"/>
		<path fill="#314A9F" d="M253.2,16.7c0-0.7,0.3-1.4,0.8-1.9c0.5-0.5,1.2-0.8,1.9-0.8c0.7,0,1.3,0.3,1.9,0.8
			c0.5,0.5,0.8,1.1,0.8,1.9c0,0.7-0.3,1.3-0.8,1.9c-0.5,0.5-1.1,0.8-1.8,0.8c-0.7,0-1.3-0.3-1.9-0.8S253.2,17.4,253.2,16.7z
			 M254.4,58.8v-31h3v31H254.4z"/>
		<path fill="#314A9F" d="M264.5,62.5c0-1.6,0.6-3.1,1.9-4.5c1.3-1.5,3.1-2.8,5.6-3.9c-1.8-1-2.6-2.1-2.6-3.3c0-0.8,0.2-1.5,0.7-2.1
			c0.5-0.6,1.3-1.3,2.4-1.9c-1.8-0.8-3.2-2.1-4.2-3.6c-1-1.6-1.5-3.4-1.5-5.5c0-3.1,1.1-5.6,3.3-7.6c2.2-1.9,4.8-2.9,7.8-2.9
			c3.1,0,5.6,0.9,7.7,2.6l7.7-2.5l0.6,3.4l-6.6,0.7c1.4,1.7,2.1,3.7,2.1,6.2c0,3.1-1.1,5.7-3.3,7.6c-2.2,1.9-4.9,2.9-8,2.9
			c-0.9,0-1.9-0.1-3-0.3c-1.7,0.9-2.5,1.8-2.5,2.5c0,0.7,0.5,1.2,1.4,1.6c0.9,0.4,2.9,0.9,5.8,1.5l2.4,0.5c3.7,0.7,6.5,1.7,8.2,2.8
			c1.7,1.2,2.6,2.8,2.6,4.9c0,2.7-1.4,4.9-4.2,6.6c-2.8,1.7-6.3,2.5-10.4,2.5c-4.1,0-7.4-0.7-10-2.1C265.8,67,264.5,65,264.5,62.5z
			 M267.7,62.3c0,1.8,1,3.2,3.1,4.2s4.7,1.5,7.9,1.5c3.3,0,5.9-0.6,8-1.8c2.1-1.2,3.1-2.7,3.1-4.5c0-1.4-0.7-2.5-2-3.3
			c-1.3-0.8-3.6-1.5-6.8-2.1l-2.3-0.5c-1.8-0.3-3-0.6-3.7-0.8C270.1,57.1,267.7,59.5,267.7,62.3z M269.9,37.5c0,2.3,0.7,4.2,2.2,5.7
			c1.5,1.5,3.4,2.3,5.9,2.3c2.5,0,4.5-0.7,6-2.2c1.5-1.5,2.2-3.4,2.2-5.7c0-2.3-0.8-4.2-2.3-5.7c-1.5-1.5-3.5-2.3-6-2.3
			c-2.4,0-4.3,0.7-5.8,2.2C270.6,33.3,269.9,35.2,269.9,37.5z"/>
		<path fill="#314A9F" d="M300.5,58.8V12.2l3.2-0.6v20.8c2.1-1.8,4-3.1,5.7-4s3.6-1.3,5.5-1.3c3.2,0,5.6,0.8,7.1,2.5
			c1.6,1.7,2.4,4.1,2.4,7.2v22h-3.2V37.2c0-2.3-0.6-4.1-1.7-5.4c-1.1-1.2-2.8-1.9-5-1.9c-3.3,0-6.9,1.9-10.9,5.6v23.2H300.5z"/>
		<path fill="#314A9F" d="M330.8,30.4v-2.6h4.8v-11l3.2-0.6v11.7h7.6l0.4,2.6h-8v21.3c0,1.8,0.4,3,1.1,3.8c0.8,0.7,2,1.1,3.8,1.1
			c0.9,0,1.9-0.1,3.1-0.5l0.5,2.5c-1.1,0.4-2.5,0.6-4.2,0.6c-4.9,0-7.4-2.4-7.4-7.1V30.4H330.8z"/>
	</g>
</g>
</svg>
