<?xml version="1.0" encoding="utf-8"?>
<!-- Generator: Adobe Illustrator 18.0.0, SVG Export Plug-In . SVG Version: 6.00 Build 0)  -->
<!DOCTYPE svg PUBLIC "-//W3C//DTD SVG 1.1//EN" "http://www.w3.org/Graphics/SVG/1.1/DTD/svg11.dtd">
<svg version="1.1" id="Layer_1" xmlns="http://www.w3.org/2000/svg" xmlns:xlink="http://www.w3.org/1999/xlink" x="0px" y="0px"
	 width="46.9px" height="42.6px" viewBox="0 0 46.9 42.6" style="enable-background:new 0 0 46.9 42.6;" xml:space="preserve">
<style type="text/css">
	.st0{fill:none;stroke:#FF5052;stroke-width:1.5;stroke-linecap:round;stroke-linejoin:round;}
	.st1{display:none;fill:#FFFFFF;stroke:#2F80ED;stroke-width:1.5;stroke-linecap:round;stroke-linejoin:round;}
</style>
<path class="st0" d="M7.8,34.3C5.7,31.8,3.1,27,3.1,27c4-1.5,12.8-4.8,15.3-6.8c2.4-2,3.1-10.5,3.1-14.7c0.2-0.6,0.8-1.7,1.9-1.6
	c1.1,0.1,1.8,5.3,2,7.9l7.1-9.1c0.4-0.6,1.3-1.3,2.1-0.4c0.8,0.9-3.7,7.9-5.9,11.2l10-10.1c0.2-0.4,1.1-1,2,0.2
	c1,1.2-5.3,7.5-8.5,10.4l9.8-5.8c0.3-0.1,1.1,0,1.6,1.2c0.4,1.1-6.1,5.2-9.3,7.1l6.2-0.6c0.4,0,0.9-0.1,1.1,0.8
	c0,1.1-12.9,7.5-15.3,10.1c-1.9,2-9.1,9.8-12.3,13.4C14,40.3,9.9,36.9,7.8,34.3z"/>
<path class="st1" d="M8,11.2c2.1-2.1,6-4.9,6-4.9c1.7,3.5,5.6,10.9,7.6,12.8s9.7,1.7,13.3,1.3c0.5,0.1,1.6,0.5,1.6,1.5
	S32,24,29.7,24.5l8.7,5.4c0.5,0.3,1.4,1.1,0.6,1.8c-0.7,0.7-7.3-2.4-10.6-4.1l10,7.8c0.4,0.2,1,0.8,0,1.8s-7.2-3.9-10.1-6.5l6.1,8.1
	c0.1,0.3,0.1,1-0.9,1.6c-1,0.5-5.2-4.8-7.2-7.6l1.6,5.2c0.1,0.3,0.1,1-0.6,1.2c-0.9,0.3-8.5-10.6-11-12.4c-2-1.4-9.6-7-13.1-9.6
	C3.2,17.2,5.9,13.3,8,11.2z"/>
</svg>
