<?xml version="1.0" encoding="utf-8"?>
<!-- Generator: Adobe Illustrator 18.0.0, SVG Export Plug-In . SVG Version: 6.00 Build 0)  -->
<!DOCTYPE svg PUBLIC "-//W3C//DTD SVG 1.1//EN" "http://www.w3.org/Graphics/SVG/1.1/DTD/svg11.dtd">
<svg version="1.1" id="Layer_1" xmlns="http://www.w3.org/2000/svg" xmlns:xlink="http://www.w3.org/1999/xlink" x="0px" y="0px"
	 width="29.8px" height="38px" viewBox="-3.8 -1 29.8 38" enable-background="new -3.8 -1 29.8 38" xml:space="preserve">
<path fill="none" stroke="#FF5052" stroke-width="1.5" d="M5.8,12.8c-0.3,4.5-1,14.1-1.6,17c-0.6,2.8-1.3,5.1-1.6,5.8h18.2
	c-0.3-0.8-1-3-1.6-5.8s-1.3-12.5-1.6-17L19,25.7l4.4-6.5L17.9,2.1c-0.2-0.5-0.8-0.8-1.3-0.6c-1.1,0.5-3.1,1.3-4.9,1.3
	c-1.8,0-3.9-0.8-5-1.3C6.2,1.2,5.6,1.5,5.5,2L0,19.2L3.6,25L5.8,12.8z"/>
</svg>
