<svg width="52" height="34" viewBox="0 0 52 34" fill="none" xmlns="http://www.w3.org/2000/svg">
<path d="M34.6325 6.09467V6.57616H35.114H43.7807C44.2169 6.57616 44.6189 6.81387 44.8289 7.19559L48.6562 14.1546L48.7934 14.4041H49.0781H50.3227C50.9832 14.4041 51.5186 14.9395 51.5185 15.6V27.5097C51.5185 28.1707 50.9832 28.7056 50.3226 28.7056H47.8226H47.4544L47.3579 29.061C46.7237 31.399 44.5822 33.123 42.0474 33.123C39.5132 33.123 37.3714 31.3991 36.737 29.0611L36.6406 28.7057H36.2723H16.7903H16.422L16.3256 29.0611C15.6912 31.3991 13.5494 33.123 11.0151 33.123C8.48077 33.123 6.33897 31.399 5.70459 29.0611L5.60815 28.7057H5.23991H1.67741C1.01687 28.7057 0.481481 28.1703 0.481481 27.5098V1.67751C0.481481 1.01685 1.01689 0.481481 1.67741 0.481481H33.4366C34.0972 0.481481 34.6326 1.01687 34.6325 1.67746V6.09467ZM43.2107 9.21747L43.0735 8.96801H42.7888H35.114H34.6325V9.44949V13.9226V14.4041H35.114H45.2489H46.0631L45.6707 13.6906L43.2107 9.21747ZM35.114 16.7959H34.6325V17.2774V25.8324V26.3139H35.114H36.338H36.6914L36.7974 25.9767C37.4988 23.7437 39.5884 22.1208 42.0474 22.1208C44.5063 22.1208 46.5959 23.7437 47.2975 25.9766L47.4034 26.3137H47.7568H48.6452H49.1267V25.8323V17.2774V16.7959H48.6452H35.114ZM5.30562 26.3139H5.65904L5.76496 25.9767C6.46647 23.7437 8.55611 22.1208 11.0151 22.1208C13.4741 22.1208 15.5636 23.7437 16.2652 25.9767L16.3711 26.3139H16.7245H31.7592H32.2407V25.8324V3.35492V2.87344H31.7592H3.35482H2.87334V3.35492V25.8324V26.3139H3.35482H5.30562ZM38.938 27.6216C38.938 29.3363 40.3322 30.7305 42.0474 30.7305C43.7625 30.7305 45.1569 29.3363 45.1568 27.6215C45.1568 25.907 43.7627 24.5122 42.0474 24.5122C40.3322 24.5122 38.938 25.9064 38.938 27.6216ZM7.90566 27.6216C7.90566 29.3363 9.29993 30.7305 11.0151 30.7305C12.7296 30.7305 14.1245 29.3363 14.1245 27.6216C14.1245 25.907 12.7304 24.5122 11.0151 24.5122C9.29986 24.5122 7.90566 25.9064 7.90566 27.6216Z" fill="white" stroke="#F5F6F9" stroke-width="0.962963"/>
</svg>
