<svg width="40" height="46" viewBox="0 0 40 46" fill="none" xmlns="http://www.w3.org/2000/svg">
<path d="M20.1609 12.4447L19.9998 12.3899L19.8387 12.4447L18.837 12.7856L18.837 12.7856L6.51001 16.981V9.39148H33.4891V16.9809L21.1625 12.7857L21.1625 12.7856L20.1609 12.4447Z" stroke="#0971CE"/>
<path d="M26.8878 42.3659L26.8877 42.3659L26.8641 42.3827C26.6103 42.5633 26.3607 42.7409 26.0738 42.864C25.7612 42.9981 25.4279 43.0597 24.999 43.0597C24.57 43.0597 24.2367 42.9981 23.9241 42.864C23.637 42.7408 23.3873 42.5632 23.1333 42.3825L23.11 42.3659L23.11 42.3659C22.4351 41.886 21.5855 41.2818 19.9989 41.2818C18.4124 41.2818 17.5628 41.886 16.888 42.3659L16.8879 42.3659L16.8644 42.3827C16.6106 42.5633 16.3609 42.7409 16.074 42.864C15.7614 42.9981 15.4282 43.0597 14.9992 43.0597C14.5702 43.0597 14.237 42.9981 13.9244 42.864C13.6372 42.7408 13.3875 42.563 13.1336 42.3823L13.1105 42.3659C13.1104 42.3659 13.1104 42.3659 13.1104 42.3659C12.4356 41.8859 11.5861 41.2818 9.99951 41.2818C8.41294 41.2818 7.5633 41.886 6.88859 42.3659L6.88853 42.3659C6.88066 42.3715 6.87279 42.3771 6.86493 42.3827C6.61113 42.5633 6.3615 42.7409 6.07458 42.864C5.76198 42.9981 5.42874 43.0597 4.99976 43.0597C4.57082 43.0597 4.23756 42.9981 3.92495 42.864C3.63782 42.7408 3.38807 42.563 3.13413 42.3823C3.12645 42.3769 3.11876 42.3714 3.11107 42.3659C3.11105 42.3659 3.11103 42.3659 3.11101 42.3659L3.11093 42.3658C2.51069 41.939 1.77221 41.4139 0.5 41.303V43.4247C0.707994 43.4559 0.894823 43.5091 1.07481 43.5863C1.36191 43.7095 1.61166 43.8872 1.86559 44.0679C1.87333 44.0734 1.88106 44.0789 1.88881 44.0844M26.8878 42.3659L11.8885 44.0843C11.8808 44.0788 11.8731 44.0733 11.8654 44.0679C11.6115 43.8872 11.3617 43.7094 11.0746 43.5863C10.762 43.4521 10.4287 43.3905 9.99979 43.3905C9.57077 43.3905 9.23749 43.4521 8.92486 43.5862C8.63785 43.7094 8.38816 43.887 8.13429 44.0676C8.12647 44.0731 8.11865 44.0787 8.11083 44.0843L8.11079 44.0843C7.43596 44.5642 6.58633 45.1684 4.99976 45.1684C3.41318 45.1684 2.56355 44.5642 1.88881 44.0844M26.8878 42.3659C27.5626 41.886 28.4122 41.2818 29.9988 41.2818C31.5855 41.2818 32.4353 41.8859 33.1101 42.3657M26.8878 42.3659L33.3998 41.9583L33.1101 42.3657M1.88881 44.0844L1.60135 44.4886L1.88881 44.0844ZM36.6271 41.9981L36.8886 42.3657L36.8655 42.3822C36.6114 42.5629 36.3615 42.7407 36.0743 42.8639C35.7617 42.998 35.4283 43.0596 34.9993 43.0596C34.5703 43.0596 34.237 42.998 33.9243 42.8639C33.6371 42.7407 33.3873 42.5629 33.1332 42.3822L33.1101 42.3657M36.6271 41.9981L33.1101 42.3657M36.6271 41.9981L36.8886 42.3657C37.4887 41.939 38.2274 41.4138 39.5 41.3029M36.6271 41.9981L39.5 41.3029M39.5 41.3029V43.4246C39.2919 43.4558 39.105 43.509 38.925 43.5863C38.6378 43.7094 38.3879 43.8872 38.1339 44.0679L38.1108 44.0843L38.1107 44.0844L38.1107 44.0844C37.4358 44.5642 36.5861 45.1683 34.9995 45.1683C33.4128 45.1683 32.5631 44.5642 31.8883 44.0844C31.8882 44.0844 31.8882 44.0844 31.8882 44.0844L31.8651 44.0679C31.6111 43.8872 31.3612 43.7094 31.074 43.5863C30.7613 43.4521 30.428 43.3905 29.999 43.3905C29.57 43.3905 29.2368 43.4521 28.9241 43.5863C28.6371 43.7094 28.3875 43.887 28.1336 44.0676L28.1101 44.0843L28.1101 44.0843C27.4354 44.5642 26.5857 45.1684 24.9992 45.1684C23.4126 45.1684 22.5629 44.5642 21.8881 44.0843L21.8881 44.0843L21.8648 44.0677C21.6108 43.8871 21.3611 43.7094 21.074 43.5862C20.7614 43.4521 20.4281 43.3905 19.9991 43.3905C19.5702 43.3905 19.2369 43.4521 18.9243 43.5863C18.6373 43.7094 18.3876 43.887 18.1338 44.0677L18.1104 44.0843C17.4356 44.5642 16.586 45.1684 14.9995 45.1684C13.4129 45.1684 12.5634 44.5643 11.8885 44.0843L39.5 41.3029Z" fill="#0971CE" stroke="white"/>
<path d="M21.0526 2.38341V2.88341H21.5526H28.5137V6.28275H11.5864V2.88341H18.4439H18.9439V2.38341V0.5H21.0526V2.38341Z" stroke="#0971CE"/>
<path d="M7.4995 37.5073L1.29096 22.0982L17.9466 16.4295V37.3963C16.6273 37.693 15.6674 38.2328 15.0005 38.6758C14.0228 38.0257 12.4297 37.1729 10.0007 37.1729C9.04429 37.1729 8.215 37.3051 7.4995 37.5073Z" stroke="#0971CE"/>
<path d="M24.9957 38.6758C24.3291 38.2331 23.3697 37.6934 22.0511 37.3966V16.4294L38.7116 22.0996L32.4337 37.4907C31.7328 37.2982 30.9248 37.1728 29.9957 37.1728C27.5665 37.1728 25.9733 38.0257 24.9957 38.6758Z" stroke="#0971CE"/>
</svg>
