<?xml version="1.0" encoding="utf-8"?>
<!-- Generator: Adobe Illustrator 18.0.0, SVG Export Plug-In . SVG Version: 6.00 Build 0)  -->
<!DOCTYPE svg PUBLIC "-//W3C//DTD SVG 1.1//EN" "http://www.w3.org/Graphics/SVG/1.1/DTD/svg11.dtd">
<svg version="1.1" id="Layer_1" xmlns="http://www.w3.org/2000/svg" xmlns:xlink="http://www.w3.org/1999/xlink" x="0px" y="0px"
	 width="44px" height="44px" viewBox="0 -9 44 44" style="enable-background:new 0 -9 44 44;" xml:space="preserve">
<style type="text/css">
	.st0{fill:none;stroke:#FF5052;stroke-width:1.5;stroke-linecap:round;stroke-linejoin:round;}
	.st1{fill:none;stroke:#FF5052;stroke-width:1.5;}
</style>
<path class="st0" d="M5.5,6L1,3.5v13.8l4.5,2.5"/>
<path class="st0" d="M38.6,6l4.5-2.5v13.8l-4.5,2.5"/>
<path class="st1" d="M38.7,3.9v17.8c0,0.8-0.5,1.4-1.2,1.6c-2.9,0.7-8.8,1.9-15.4,1.9S9.6,24.1,6.7,23.4c-0.7-0.2-1.2-0.8-1.2-1.6
	V3.9C5.5,2.7,6.7,1.7,8,2c3.1,0.7,8,1.6,14.1,1.6s11-0.8,14.1-1.6C37.4,1.7,38.7,2.7,38.7,3.9z"/>
<path class="st0" d="M12.2,8.8c0,0,1.6,1.3,10,1.3s10-1.3,10-1.3"/>
<path class="st0" d="M12.2,13.8c0,0,1.6,1.3,10,1.3s10-1.3,10-1.3"/>
<path class="st0" d="M12.2,18.8c0,0,1.6,1.3,10,1.3s10-1.3,10-1.3"/>
</svg>
