<?xml version="1.0" encoding="utf-8"?>
<!-- Generator: Adobe Illustrator 18.0.0, SVG Export Plug-In . SVG Version: 6.00 Build 0)  -->
<!DOCTYPE svg PUBLIC "-//W3C//DTD SVG 1.1//EN" "http://www.w3.org/Graphics/SVG/1.1/DTD/svg11.dtd">
<svg version="1.1" id="Layer_1" xmlns="http://www.w3.org/2000/svg" xmlns:xlink="http://www.w3.org/1999/xlink" x="0px" y="0px"
	 width="48px" height="48px" viewBox="0 -9 48 48" style="enable-background:new 0 -9 48 48;" xml:space="preserve">
<style type="text/css">
	.st0{fill:none;stroke:#FF5052;stroke-width:1.5;stroke-linecap:round;stroke-linejoin:round;}
	.st1{fill:none;stroke:#FF5052;stroke-width:1.5;}
</style>
<path class="st0" d="M12,9.2c-2.8-2.5-7.1-5.4-9.8-3c-3.3,2.9,3.4,18.6,8.2,17.7"/>
<path class="st0" d="M37.1,8.5C40,6,43.3,3.9,46,6.2C49.3,9,42.7,25,37.9,24.1"/>
<path class="st1" d="M40.2,16.4c0,3.3-1.7,6.3-4.6,8.6c-2.9,2.2-7,3.6-11.5,3.6s-8.6-1.4-11.5-3.6S8,19.7,8,16.4
	c0-1.5,0.6-2.8,1.6-4.2c0.8-1.2,1.9-2.4,3-3.6c0.2-0.2,0.4-0.5,0.6-0.7c3.1-3.5,6.3-6.8,10.9-6.8S31.9,4.4,35,7.9
	c0.2,0.2,0.4,0.5,0.6,0.7c1.1,1.3,2.2,2.4,3,3.6C39.6,13.6,40.2,15,40.2,16.4z"/>
<path class="st0" d="M17.6,8c1.8-2,3.7-4,6.5-4s4.8,2,6.5,4"/>
<path class="st0" d="M19.2,16.2c0,0,1,1,4.9,1s4.9-1,4.9-1"/>
<path class="st0" d="M17.6,19c0,0,1.4,1,6.5,1s6.5-1,6.5-1"/>
<path class="st0" d="M19.2,22.1c0,0,1,1,4.9,1s4.9-1,4.9-1"/>
</svg>
