<?xml version="1.0" encoding="utf-8"?>
<!-- Generator: Adobe Illustrator 18.0.0, SVG Export Plug-In . SVG Version: 6.00 Build 0)  -->
<!DOCTYPE svg PUBLIC "-//W3C//DTD SVG 1.1//EN" "http://www.w3.org/Graphics/SVG/1.1/DTD/svg11.dtd">
<svg version="1.1" id="Layer_1" xmlns="http://www.w3.org/2000/svg" xmlns:xlink="http://www.w3.org/1999/xlink" x="0px" y="0px"
	 width="82px" height="109px" viewBox="0 46 82 109" enable-background="new 0 46 82 109" xml:space="preserve">
<g>
	<path fill="#0747A6" d="M60,58.9c5.6,1.7,10.4,3.9,14.5,6.7L67.4,80c-4-2.5-8.3-4.4-13-5.8s-9-2.1-13-2.1c-4.1,0-7.3,0.7-9.6,2.2
		S28.3,78,28.3,81s1.4,5.3,4.1,6.9c2.8,1.6,7.4,3.4,13.8,5.5c6.1,1.8,11.2,3.6,15.2,5.4s7.4,4.5,10.3,8.1s4.3,8.4,4.3,14.3
		c0,8.8-3.3,15.5-9.9,20.1s-14.8,6.8-24.7,6.8c-6.8,0-13.4-1.1-19.9-3.3s-11.9-5.3-16.3-9.2l6.9-13.9c3.9,3.4,8.6,6.1,14.1,8.1
		c5.6,2,10.9,3.1,16.1,3.1c4.4,0,8-0.8,10.7-2.4s4.1-4,4.1-7.3c0-2.5-0.8-4.5-2.5-6.2c-1.7-1.6-3.7-2.9-6-3.9
		c-2.4-1-5.8-2.1-10.3-3.5c-6-1.8-10.9-3.6-14.6-5.3c-3.8-1.7-7-4.3-9.7-7.8c-2.7-3.4-4.1-8-4.1-13.8c0-8.6,3.2-15.1,9.5-19.6
		s14.3-6.7,23.7-6.7C48.8,56.4,54.4,57.2,60,58.9z"/>
</g>
</svg>
