<?xml version="1.0" encoding="utf-8"?>
<!-- Generator: Adobe Illustrator 18.0.0, SVG Export Plug-In . SVG Version: 6.00 Build 0)  -->
<!DOCTYPE svg PUBLIC "-//W3C//DTD SVG 1.1//EN" "http://www.w3.org/Graphics/SVG/1.1/DTD/svg11.dtd">
<svg version="1.1" id="Layer_1" xmlns="http://www.w3.org/2000/svg" xmlns:xlink="http://www.w3.org/1999/xlink" x="0px" y="0px"
	 width="900px" height="570.2px" viewBox="0 0 900 570.2" enable-background="new 0 0 900 570.2" xml:space="preserve">
<g>
	<polygon fill="#EAEAEA" points="946.7,522 939,522 940.7,453 945,453 	"/>
	<polygon fill="#19415A" points="225.1,410.4 221.5,410.4 222.5,387.5 224,387.5 	"/>
	<g>
		<polygon fill="#353F47" points="644.2,443.4 523.5,443.4 523.5,444.1 407.8,461.2 407.8,494.7 287,494.7 287,542.9 404.3,542.9 
			406.1,542.9 525.1,542.9 526.9,542.9 645.9,542.9 647.7,542.9 765.1,542.9 765.1,493.2 644.3,493.2 		"/>
		<rect x="797.7" y="489.4" fill="#40474C" width="115.8" height="44.6"/>
	</g>
	<g>
		<g>
			<rect x="409.3" y="445" fill="#CCCC17" width="112.7" height="42.8"/>
			<path opacity="0.3" fill="#6B9136" d="M409.3,445v4.8v37.1H522v-37.1V445H409.3z M517.1,483.1H414.5v-33.3h102.5V483.1z"/>
			<path fill="#CCCC17" d="M411.7,447.4h107.9v38H411.7V447.4L411.7,447.4z M406.9,442.6v47.6h117.5v-47.6H406.9L406.9,442.6z"/>
		</g>
		<g>
			<g>
				<g opacity="0.3">
					<rect x="506.7" y="453" fill="#6B9136" width="2.5" height="26.8"/>
				</g>
				<g opacity="0.3">
					<rect x="496.5" y="453" fill="#6B9136" width="2.5" height="26.8"/>
				</g>
				<g opacity="0.3">
					<rect x="486.2" y="453" fill="#6B9136" width="2.5" height="26.8"/>
				</g>
				<g opacity="0.3">
					<rect x="475.9" y="453" fill="#6B9136" width="2.5" height="26.8"/>
				</g>
				<g opacity="0.3">
					<rect x="465.7" y="453" fill="#6B9136" width="2.5" height="26.8"/>
				</g>
				<g opacity="0.3">
					<rect x="455.4" y="453" fill="#6B9136" width="2.5" height="26.8"/>
				</g>
				<g opacity="0.3">
					<rect x="445.1" y="453" fill="#6B9136" width="2.5" height="26.8"/>
				</g>
				<g opacity="0.3">
					<rect x="434.9" y="453" fill="#6B9136" width="2.5" height="26.8"/>
				</g>
				<g opacity="0.3">
					<rect x="424.6" y="453" fill="#6B9136" width="2.5" height="26.8"/>
				</g>
			</g>
		</g>
		<g opacity="0.2">
			<g>
				<g>
					<g>
						<rect x="504.5" y="453" fill="#778796" width="2.5" height="26.8"/>
					</g>
				</g>
				<g>
					<g>
						<rect x="494.2" y="453" fill="#778796" width="2.5" height="26.8"/>
					</g>
				</g>
				<g>
					<g>
						<rect x="483.9" y="453" fill="#778796" width="2.5" height="26.8"/>
					</g>
				</g>
				<g>
					<g>
						<rect x="473.7" y="453" fill="#778796" width="2.5" height="26.8"/>
					</g>
				</g>
				<g>
					<g>
						<rect x="463.4" y="453" fill="#778796" width="2.5" height="26.8"/>
					</g>
				</g>
				<g>
					<g>
						<rect x="453.1" y="453" fill="#778796" width="2.5" height="26.8"/>
					</g>
				</g>
				<g>
					<g>
						<rect x="442.9" y="453" fill="#778796" width="2.5" height="26.8"/>
					</g>
				</g>
				<g>
					<g>
						<rect x="432.6" y="453" fill="#778796" width="2.5" height="26.8"/>
					</g>
				</g>
				<g>
					<g>
						<rect x="422.3" y="453" fill="#778796" width="2.5" height="26.8"/>
					</g>
				</g>
			</g>
		</g>
	</g>
	<g>
		<g>
			<rect x="530.1" y="445" fill="#537197" width="112.7" height="42.8"/>
			<rect x="530.1" y="445" opacity="0.5" fill="#3F5B7A" width="112.7" height="4.8"/>
			<polygon opacity="0.5" fill="#3F5B7A" points="642.8,486.8 642.8,449.8 637.9,449.8 637.9,483.1 535.4,483.1 535.4,449.8 
				530.1,449.8 530.1,486.8 			"/>
			<path fill="#5589AD" d="M532.5,447.4h107.9v38H532.5V447.4L532.5,447.4z M527.7,442.6v47.6h117.5v-47.6H527.7L527.7,442.6z"/>
		</g>
		<g>
			<g>
				<g opacity="0.6">
					<rect x="627.5" y="453" fill="#3F5B7A" width="2.5" height="26.8"/>
				</g>
				<g opacity="0.6">
					<rect x="617.3" y="453" fill="#3F5B7A" width="2.5" height="26.8"/>
				</g>
				<g opacity="0.6">
					<rect x="607" y="453" fill="#3F5B7A" width="2.5" height="26.8"/>
				</g>
				<g opacity="0.6">
					<rect x="596.7" y="453" fill="#3F5B7A" width="2.5" height="26.8"/>
				</g>
				<g opacity="0.6">
					<rect x="586.5" y="453" fill="#3F5B7A" width="2.5" height="26.8"/>
				</g>
				<g opacity="0.6">
					<rect x="576.2" y="453" fill="#3F5B7A" width="2.5" height="26.8"/>
				</g>
				<g opacity="0.6">
					<rect x="565.9" y="453" fill="#3F5B7A" width="2.5" height="26.8"/>
				</g>
				<g opacity="0.6">
					<rect x="555.7" y="453" fill="#3F5B7A" width="2.5" height="26.8"/>
				</g>
				<g opacity="0.6">
					<rect x="545.4" y="453" fill="#3F5B7A" width="2.5" height="26.8"/>
				</g>
			</g>
		</g>
		<g opacity="0.2">
			<g>
				<g>
					<rect x="625.3" y="453" fill="#3F5B7A" width="2.5" height="26.8"/>
				</g>
				<g>
					<rect x="615" y="453" fill="#3F5B7A" width="2.5" height="26.8"/>
				</g>
				<g>
					<rect x="604.7" y="453" fill="#3F5B7A" width="2.5" height="26.8"/>
				</g>
				<g>
					<rect x="594.5" y="453" fill="#3F5B7A" width="2.5" height="26.8"/>
				</g>
				<g>
					<rect x="584.2" y="453" fill="#3F5B7A" width="2.5" height="26.8"/>
				</g>
				<g>
					<rect x="573.9" y="453" fill="#3F5B7A" width="2.5" height="26.8"/>
				</g>
				<g>
					<rect x="563.7" y="453" fill="#3F5B7A" width="2.5" height="26.8"/>
				</g>
				<g>
					<rect x="553.4" y="453" fill="#3F5B7A" width="2.5" height="26.8"/>
				</g>
				<g>
					<rect x="543.1" y="453" fill="#3F5B7A" width="2.5" height="26.8"/>
				</g>
			</g>
		</g>
	</g>
	<g>
		<g>
			<rect x="288.5" y="495.1" fill="#DE3A29" width="112.7" height="42.8"/>
			<rect x="288.5" y="495.1" opacity="0.2" fill="#516D8C" width="112.7" height="4.8"/>
			<polygon opacity="0.2" fill="#516D8C" points="401.2,537 401.2,499.9 396.2,499.9 396.2,533.2 293.7,533.2 293.7,499.9 
				288.5,499.9 288.5,537 			"/>
			<path fill="#ED463E" d="M290.9,497.6h107.9v38H290.9V497.6L290.9,497.6z M286.1,492.7v47.6h117.5v-47.6H286.1L286.1,492.7z"/>
		</g>
		<g>
			<g>
				<g opacity="0.2">
					<rect x="385.8" y="503.2" fill="#89231F" width="2.5" height="26.8"/>
				</g>
				<g opacity="0.2">
					<rect x="375.6" y="503.2" fill="#89231F" width="2.5" height="26.8"/>
				</g>
				<g opacity="0.2">
					<rect x="365.3" y="503.2" fill="#89231F" width="2.5" height="26.8"/>
				</g>
				<g opacity="0.2">
					<rect x="355" y="503.2" fill="#89231F" width="2.5" height="26.8"/>
				</g>
				<g opacity="0.2">
					<rect x="344.8" y="503.2" fill="#89231F" width="2.5" height="26.8"/>
				</g>
				<g opacity="0.2">
					<rect x="334.5" y="503.2" fill="#89231F" width="2.5" height="26.8"/>
				</g>
				<g opacity="0.2">
					<rect x="324.2" y="503.2" fill="#89231F" width="2.5" height="26.8"/>
				</g>
				<g opacity="0.2">
					<rect x="314" y="503.2" fill="#89231F" width="2.5" height="26.8"/>
				</g>
				<g opacity="0.2">
					<rect x="303.7" y="503.2" fill="#89231F" width="2.5" height="26.8"/>
				</g>
			</g>
		</g>
		<g opacity="0.2">
			<g>
				<g>
					<rect x="383.7" y="503.2" fill="#516D8C" width="2.5" height="26.8"/>
				</g>
				<g>
					<rect x="373.4" y="503.2" fill="#516D8C" width="2.5" height="26.8"/>
				</g>
				<g>
					<rect x="363.1" y="503.2" fill="#516D8C" width="2.5" height="26.8"/>
				</g>
				<g>
					<rect x="352.9" y="503.2" fill="#516D8C" width="2.5" height="26.8"/>
				</g>
				<g>
					<rect x="342.6" y="503.2" fill="#516D8C" width="2.5" height="26.8"/>
				</g>
				<g>
					<rect x="332.3" y="503.2" fill="#516D8C" width="2.5" height="26.8"/>
				</g>
				<g>
					<rect x="322.1" y="503.2" fill="#516D8C" width="2.5" height="26.8"/>
				</g>
				<g>
					<rect x="311.8" y="503.2" fill="#516D8C" width="2.5" height="26.8"/>
				</g>
				<g>
					<rect x="301.5" y="503.2" fill="#516D8C" width="2.5" height="26.8"/>
				</g>
			</g>
		</g>
		<polygon opacity="0.4" fill="#537197" points="403.6,540.4 382,540.4 398,492.7 403.6,492.7 		"/>
		<polygon opacity="0.4" fill="#537197" points="524.4,490.2 508,490.2 524,447.4 524.4,442.6 		"/>
	</g>
	<g>
		<g>
			<rect x="409.3" y="495.1" fill="#DE3A29" width="112.7" height="42.8"/>
			<rect x="409.3" y="495.1" opacity="0.2" fill="#3F5B7A" width="112.7" height="4.8"/>
			<polygon opacity="0.2" fill="#516D8C" points="522,537 522,499.9 517.1,499.9 517.1,533.2 414.5,533.2 414.5,499.9 409.3,499.9 
				409.3,537 			"/>
			<path fill="#ED463E" d="M411.7,497.6h107.9v38H411.7V497.6L411.7,497.6z M406.9,492.7v47.6h117.5v-47.6H406.9L406.9,492.7z"/>
		</g>
		<g>
			<g>
				<g opacity="0.2">
					<rect x="506.7" y="503.2" fill="#516D8C" width="2.5" height="26.8"/>
				</g>
				<g opacity="0.2">
					<rect x="496.5" y="503.2" fill="#516D8C" width="2.5" height="26.8"/>
				</g>
				<g opacity="0.2">
					<rect x="486.2" y="503.2" fill="#516D8C" width="2.5" height="26.8"/>
				</g>
				<g opacity="0.2">
					<rect x="475.9" y="503.2" fill="#516D8C" width="2.5" height="26.8"/>
				</g>
				<g opacity="0.2">
					<rect x="465.7" y="503.2" fill="#516D8C" width="2.5" height="26.8"/>
				</g>
				<g opacity="0.2">
					<rect x="455.4" y="503.2" fill="#516D8C" width="2.5" height="26.8"/>
				</g>
				<g opacity="0.2">
					<rect x="445.1" y="503.2" fill="#516D8C" width="2.5" height="26.8"/>
				</g>
				<g opacity="0.2">
					<rect x="434.9" y="503.2" fill="#516D8C" width="2.5" height="26.8"/>
				</g>
				<g opacity="0.2">
					<rect x="424.6" y="503.2" fill="#516D8C" width="2.5" height="26.8"/>
				</g>
			</g>
		</g>
		<g opacity="0.2">
			<g>
				<g opacity="0.6">
					<rect x="504.5" y="503.2" fill="#516D8C" width="2.5" height="26.8"/>
				</g>
				<g opacity="0.6">
					<rect x="494.2" y="503.2" fill="#516D8C" width="2.5" height="26.8"/>
				</g>
				<g opacity="0.6">
					<rect x="483.9" y="503.2" fill="#516D8C" width="2.5" height="26.8"/>
				</g>
				<g opacity="0.6">
					<rect x="473.7" y="503.2" fill="#516D8C" width="2.5" height="26.8"/>
				</g>
				<g opacity="0.6">
					<rect x="463.4" y="503.2" fill="#516D8C" width="2.5" height="26.8"/>
				</g>
				<g opacity="0.6">
					<rect x="453.1" y="503.2" fill="#516D8C" width="2.5" height="26.8"/>
				</g>
				<g opacity="0.6">
					<rect x="442.9" y="503.2" fill="#516D8C" width="2.5" height="26.8"/>
				</g>
				<g opacity="0.6">
					<rect x="432.6" y="503.2" fill="#516D8C" width="2.5" height="26.8"/>
				</g>
				<g opacity="0.6">
					<rect x="422.3" y="503.2" fill="#516D8C" width="2.5" height="26.8"/>
				</g>
			</g>
		</g>
	</g>
	<g>
		<g>
			<rect x="530.1" y="495.1" fill="#FFD939" width="112.7" height="42.8"/>
			<path fill="#EFB73A" d="M530.1,495.1v4.8V537h112.7v-37.1v-4.8H530.1z M637.9,533.2H535.4v-33.3h102.5V533.2z"/>
			<path fill="#FFD939" d="M532.5,497.6h107.9v38H532.5V497.6L532.5,497.6z M527.7,492.7v47.6h117.5v-47.6H527.7L527.7,492.7z"/>
		</g>
		<g>
			<g>
				<g>
					<rect x="627.5" y="503.2" fill="#E8AE46" width="2.5" height="26.8"/>
				</g>
				<g>
					<rect x="617.3" y="503.2" fill="#E8AE46" width="2.5" height="26.8"/>
				</g>
				<g>
					<rect x="607" y="503.2" fill="#E8AE46" width="2.5" height="26.8"/>
				</g>
				<g>
					<rect x="596.7" y="503.2" fill="#E8AE46" width="2.5" height="26.8"/>
				</g>
				<g>
					<rect x="586.5" y="503.2" fill="#E8AE46" width="2.5" height="26.8"/>
				</g>
				<g>
					<rect x="576.2" y="503.2" fill="#E8AE46" width="2.5" height="26.8"/>
				</g>
				<g>
					<rect x="565.9" y="503.2" fill="#E8AE46" width="2.5" height="26.8"/>
				</g>
				<g>
					<rect x="555.7" y="503.2" fill="#E8AE46" width="2.5" height="26.8"/>
				</g>
				<g>
					<rect x="545.4" y="503.2" fill="#E8AE46" width="2.5" height="26.8"/>
				</g>
			</g>
		</g>
		<g opacity="0.2">
			<g>
				<g>
					<rect x="625.3" y="503.2" fill="#FFDC48" width="2.5" height="26.8"/>
				</g>
				<g>
					<rect x="615" y="503.2" fill="#FFDC48" width="2.5" height="26.8"/>
				</g>
				<g>
					<rect x="604.7" y="503.2" fill="#FFDC48" width="2.5" height="26.8"/>
				</g>
				<g>
					<rect x="594.5" y="503.2" fill="#FFDC48" width="2.5" height="26.8"/>
				</g>
				<g>
					<rect x="584.2" y="503.2" fill="#FFDC48" width="2.5" height="26.8"/>
				</g>
				<g>
					<rect x="573.9" y="503.2" fill="#FFDC48" width="2.5" height="26.8"/>
				</g>
				<g>
					<rect x="563.7" y="503.2" fill="#FFDC48" width="2.5" height="26.8"/>
				</g>
				<g>
					<rect x="553.4" y="503.2" fill="#FFDC48" width="2.5" height="26.8"/>
				</g>
				<g>
					<rect x="543.1" y="503.2" fill="#FFDC48" width="2.5" height="26.8"/>
				</g>
			</g>
		</g>
	</g>
	<g>
		<g>
			<rect x="650.9" y="495.1" fill="#FF8501" width="112.7" height="42.8"/>
			<rect x="650.9" y="495.1" fill="#ED7906" width="112.7" height="4.8"/>
			<polygon fill="#ED7906" points="763.6,537 763.6,499.9 758.7,499.9 758.7,533.2 656.2,533.2 656.2,499.9 650.9,499.9 650.9,537 
							"/>
			<path fill="#FF9210" d="M653.3,497.6h107.9v38H653.3V497.6L653.3,497.6z M648.5,492.7v47.6H766v-47.6H648.5L648.5,492.7z"/>
		</g>
		<g>
			<g>
				<g opacity="0.4">
					<rect x="748.3" y="503.2" fill="#AF6420" width="2.5" height="26.8"/>
				</g>
				<g opacity="0.4">
					<rect x="738.1" y="503.2" fill="#AF6420" width="2.5" height="26.8"/>
				</g>
				<g opacity="0.4">
					<rect x="727.8" y="503.2" fill="#AF6420" width="2.5" height="26.8"/>
				</g>
				<g opacity="0.4">
					<rect x="717.5" y="503.2" fill="#AF6420" width="2.5" height="26.8"/>
				</g>
				<g opacity="0.4">
					<rect x="707.3" y="503.2" fill="#AF6420" width="2.5" height="26.8"/>
				</g>
				<g opacity="0.4">
					<rect x="697" y="503.2" fill="#AF6420" width="2.5" height="26.8"/>
				</g>
				<g opacity="0.4">
					<rect x="686.7" y="503.2" fill="#AF6420" width="2.5" height="26.8"/>
				</g>
				<g opacity="0.4">
					<rect x="676.5" y="503.2" fill="#AF6420" width="2.5" height="26.8"/>
				</g>
				<g opacity="0.4">
					<rect x="666.2" y="503.2" fill="#AF6420" width="2.5" height="26.8"/>
				</g>
			</g>
		</g>
		<g opacity="0.2">
			<g>
				<g opacity="0.8">
					<rect x="746.1" y="503.2" fill="#3F5B7A" width="2.5" height="26.8"/>
				</g>
				<g opacity="0.8">
					<rect x="735.8" y="503.2" fill="#3F5B7A" width="2.5" height="26.8"/>
				</g>
				<g opacity="0.8">
					<rect x="725.5" y="503.2" fill="#3F5B7A" width="2.5" height="26.8"/>
				</g>
				<g opacity="0.8">
					<rect x="715.3" y="503.2" fill="#3F5B7A" width="2.5" height="26.8"/>
				</g>
				<g opacity="0.8">
					<rect x="705" y="503.2" fill="#3F5B7A" width="2.5" height="26.8"/>
				</g>
				<g opacity="0.8">
					<rect x="694.7" y="503.2" fill="#3F5B7A" width="2.5" height="26.8"/>
				</g>
				<g opacity="0.8">
					<rect x="684.5" y="503.2" fill="#3F5B7A" width="2.5" height="26.8"/>
				</g>
				<g opacity="0.8">
					<rect x="674.2" y="503.2" fill="#3F5B7A" width="2.5" height="26.8"/>
				</g>
				<g opacity="0.8">
					<rect x="663.9" y="503.2" fill="#3F5B7A" width="2.5" height="26.8"/>
				</g>
			</g>
		</g>
	</g>
	<g>
		<g>
			<rect x="799.2" y="486.3" fill="#537197" width="112.7" height="42.8"/>
			<rect x="799.2" y="486.3" opacity="0.5" fill="#3F5B7A" width="112.7" height="4.8"/>
			<polygon opacity="0.5" fill="#3F5B7A" points="911.9,528.1 911.9,491.1 907,491.1 907,524.3 804.4,524.3 804.4,491.1 
				799.2,491.1 799.2,528.1 			"/>
			<path fill="#5589AD" d="M801.6,488.7h107.9v38H801.6V488.7L801.6,488.7z M796.8,483.9v47.6h117.5v-47.6H796.8L796.8,483.9z"/>
		</g>
		<g>
			<g>
				<g>
					<rect x="896.6" y="494.3" fill="#3F5B7A" width="2.5" height="26.8"/>
				</g>
				<g>
					<rect x="886.4" y="494.3" fill="#3F5B7A" width="2.5" height="26.8"/>
				</g>
				<g>
					<rect x="876.1" y="494.3" fill="#3F5B7A" width="2.5" height="26.8"/>
				</g>
				<g>
					<rect x="865.8" y="494.3" fill="#3F5B7A" width="2.5" height="26.8"/>
				</g>
				<g>
					<rect x="855.6" y="494.3" fill="#3F5B7A" width="2.5" height="26.8"/>
				</g>
				<g>
					<rect x="845.3" y="494.3" fill="#3F5B7A" width="2.5" height="26.8"/>
				</g>
				<g>
					<rect x="835" y="494.3" fill="#3F5B7A" width="2.5" height="26.8"/>
				</g>
				<g>
					<rect x="824.8" y="494.3" fill="#3F5B7A" width="2.5" height="26.8"/>
				</g>
				<g>
					<rect x="814.5" y="494.3" fill="#3F5B7A" width="2.5" height="26.8"/>
				</g>
			</g>
		</g>
		<g opacity="0.2">
			<g>
				<g>
					<rect x="894.4" y="494.3" fill="#3F5B7A" width="2.5" height="26.8"/>
				</g>
				<g>
					<rect x="884.1" y="494.3" fill="#3F5B7A" width="2.5" height="26.8"/>
				</g>
				<g>
					<rect x="873.8" y="494.3" fill="#3F5B7A" width="2.5" height="26.8"/>
				</g>
				<g>
					<rect x="863.6" y="494.3" fill="#3F5B7A" width="2.5" height="26.8"/>
				</g>
				<g>
					<rect x="853.3" y="494.3" fill="#3F5B7A" width="2.5" height="26.8"/>
				</g>
				<g>
					<rect x="843" y="494.3" fill="#3F5B7A" width="2.5" height="26.8"/>
				</g>
				<g>
					<rect x="832.8" y="494.3" fill="#3F5B7A" width="2.5" height="26.8"/>
				</g>
				<g>
					<rect x="822.5" y="494.3" fill="#3F5B7A" width="2.5" height="26.8"/>
				</g>
				<g>
					<rect x="812.2" y="494.3" fill="#3F5B7A" width="2.5" height="26.8"/>
				</g>
			</g>
		</g>
	</g>
	<g>
		<rect x="287" y="528.1" opacity="0.2" fill="#353F47" width="478.2" height="14.8"/>
		<rect x="796.8" y="517.7" opacity="0.2" fill="#353F47" width="117.5" height="14.8"/>
		<path fill="#FFDEA9" d="M212.7,517.9c0,2.1-1.7,3.9-3.9,3.9h-45.7c-2.1,0-3.9-1.7-3.9-3.9V499c0-2.1,1.7-3.9,3.9-3.9h45.7
			c2.1,0,3.9,1.7,3.9,3.9V517.9z"/>
		<rect x="185" y="501.7" fill="#537197" width="7" height="8.1"/>
		<rect x="169.1" y="501.7" fill="#537197" width="7" height="8.1"/>
		<g opacity="0.7">
			<polygon fill="#F0D093" points="190.4,495.1 185,522.6 200.6,521.7 200.6,495.1 			"/>
		</g>
		<rect x="197.4" y="447.2" fill="#FFDEA9" width="49.9" height="74.5"/>
		<linearGradient id="SVGID_1_" gradientUnits="userSpaceOnUse" x1="554.6221" y1="492.8076" x2="554.6221" y2="642.8636">
			<stop  offset="0" style="stop-color:#2F373F"/>
			<stop  offset="0.2671" style="stop-color:#2D3A43"/>
			<stop  offset="0.5128" style="stop-color:#28454E"/>
			<stop  offset="0.7502" style="stop-color:#205660"/>
			<stop  offset="0.981" style="stop-color:#146F7B"/>
			<stop  offset="1" style="stop-color:#13717D"/>
		</linearGradient>
		<path fill="url(#SVGID_1_)" d="M796.1,521.2l-10.8,11.9H267.6l-8.2-14.4H135.1c0,0-2.4,24.4,10.6,52.1
			c8.8,18.8,31.6,25.6,40.9,25.6c24.7,0,462.6,1.8,462.6,1.8s264.2-2.5,281.1-17.6c42.1-37.5,44-59.4,44-59.4H796.1z"/>
		<path opacity="0.7" fill="#F0D093" d="M238,448.9h-7.9l0.7-2.6h-7.5l-0.4,2.6H216l-0.4-2.6h-7.5h0.7l-7.8,1.1l1.1,12.4h10.6
			l4.5,12.8h4.7l4.3-12.8h8.9L238,448.9z M219.4,469l-1-5.8h2L219.4,469z"/>
	</g>
	<polygon fill="#EAEAEA" points="221.6,472.1 217.6,472.1 215.8,446.3 223.3,446.3 	"/>
	<polygon opacity="0.6" fill="#FFFFFF" points="221.6,470.8 220.3,470.8 220.3,453.2 222.9,452.6 	"/>
	<polygon opacity="0.4" fill="#F0D093" points="222.9,452.6 223.2,448.9 216,448.9 216.4,454.2 	"/>
	<g>
		<polygon fill="#C6C1A3" points="782.3,537.4 269.6,537.4 261.4,523 133.4,523 133.4,517.8 264.4,517.8 272.5,532.2 781.8,532.2 
			792.6,520.3 976,520.3 976,525.4 793.2,525.4 		"/>
	</g>
	<polygon fill="#FFE2B8" points="203.6,448.9 242.2,448.9 242.2,429 231.3,429 231.3,417.4 242.2,417.4 243.9,405.3 203.6,405.3 	
		"/>
	<rect x="215.8" y="417.4" fill="#537197" width="7" height="9.8"/>
	<rect x="236.7" y="464.5" fill="#537197" width="7" height="8.1"/>
	<rect x="236.7" y="482.1" fill="#537197" width="7" height="8.1"/>
	<rect x="236.7" y="499.6" fill="#537197" width="7" height="8.1"/>
	<rect x="226.7" y="417.4" fill="#537197" width="13.8" height="11.6"/>
	<rect x="203.6" y="446" fill="#FFE2B8" width="38.6" height="2.9"/>
	<polygon fill="#F0D093" points="242.2,417.4 243.9,405.3 235.1,405.3 234.3,414.3 216.6,414.3 215.8,417.4 	"/>
	<rect x="226.7" y="417.4" opacity="0.6" fill="#2B3E3C" width="13.8" height="1.9"/>
	<rect x="215.8" y="417.4" opacity="0.6" fill="#2B3E3C" width="7" height="1.9"/>
	<rect x="226.7" y="429" fill="#FFECD2" width="15.4" height="2.7"/>
	<rect x="215.8" y="427.3" fill="#FFECD2" width="7" height="2.7"/>
	<rect x="937" y="481.5" fill="#EAEAEA" width="11.7" height="2.9"/>
	<rect x="938.4" y="453" fill="#EAEAEA" width="9" height="2.9"/>
	<g>
		<g>
			<rect x="296.8" y="504.8" fill="#FFFFFF" width="13.9" height="2.5"/>
		</g>
		<g>
			<rect x="307.2" y="509.6" fill="#FFFFFF" width="7.9" height="2.5"/>
		</g>
		<g>
			<rect x="296.8" y="509.6" fill="#FFFFFF" width="7.3" height="2.5"/>
		</g>
	</g>
	<g>
		<g>
			<rect x="417.4" y="504.8" fill="#FFFFFF" width="13.9" height="2.5"/>
		</g>
		<g>
			<rect x="427.8" y="509.6" fill="#FFFFFF" width="7.9" height="2.5"/>
		</g>
		<g>
			<rect x="417.4" y="509.6" fill="#FFFFFF" width="7.3" height="2.5"/>
		</g>
	</g>
	<g>
		<rect x="219.8" y="390.8" fill="#19415A" width="6.9" height="1.7"/>
	</g>
	<g>
		<rect x="219.8" y="386.7" fill="#19415A" width="6.9" height="1.7"/>
	</g>
	<g opacity="0.5">
		<linearGradient id="SVGID_2_" gradientUnits="userSpaceOnUse" x1="543.5186" y1="561.3796" x2="543.5186" y2="612.5986">
			<stop  offset="0" style="stop-color:#2F373F"/>
			<stop  offset="0.2671" style="stop-color:#2D3A43"/>
			<stop  offset="0.5128" style="stop-color:#28454E"/>
			<stop  offset="0.7502" style="stop-color:#205660"/>
			<stop  offset="0.981" style="stop-color:#146F7B"/>
			<stop  offset="1" style="stop-color:#13717D"/>
		</linearGradient>
		<path fill="url(#SVGID_2_)" d="M145.7,570.2c0.6,1.3,1.1,2.6,1.8,4c7.9,16.9,27,19.3,37.6,23.2h516.8c78-6.6,213-2.6,225.1-13.3
			c5.5-4.9,10.2-9.5,14.4-13.8H145.7z"/>
	</g>
	<g>
		<g>
			<rect x="697.5" y="356.8" fill="#CCCC17" width="130.9" height="49.7"/>
			<path opacity="0.3" fill="#6B9136" d="M697.5,356.8v5.6v43.1h130.9v-43.1v-5.6H697.5z M822.8,401.1H703.6v-38.7h119.1V401.1z"/>
			<path fill="#CCCC17" d="M700.3,359.6h125.3v44.1H700.3V359.6L700.3,359.6z M694.8,354v55.3h136.5V354H694.8L694.8,354z"/>
		</g>
		<g>
			<g>
				<g opacity="0.3">
					<rect x="810.8" y="366.2" fill="#6B9136" width="2.9" height="31.1"/>
				</g>
				<g opacity="0.3">
					<rect x="798.8" y="366.2" fill="#6B9136" width="2.9" height="31.1"/>
				</g>
				<g opacity="0.3">
					<rect x="786.9" y="366.2" fill="#6B9136" width="2.9" height="31.1"/>
				</g>
				<g opacity="0.3">
					<rect x="775" y="366.2" fill="#6B9136" width="2.9" height="31.1"/>
				</g>
				<g opacity="0.3">
					<rect x="763" y="366.2" fill="#6B9136" width="2.9" height="31.1"/>
				</g>
				<g opacity="0.3">
					<rect x="751.1" y="366.2" fill="#6B9136" width="2.9" height="31.1"/>
				</g>
				<g opacity="0.3">
					<rect x="739.2" y="366.2" fill="#6B9136" width="2.9" height="31.1"/>
				</g>
				<g opacity="0.3">
					<rect x="727.2" y="366.2" fill="#6B9136" width="2.9" height="31.1"/>
				</g>
				<g opacity="0.3">
					<rect x="715.3" y="366.2" fill="#6B9136" width="2.9" height="31.1"/>
				</g>
			</g>
		</g>
		<g opacity="0.2">
			<g>
				<g>
					<g>
						<rect x="808.1" y="366.2" fill="#778796" width="2.9" height="31.1"/>
					</g>
				</g>
				<g>
					<g>
						<rect x="796.2" y="366.2" fill="#778796" width="2.9" height="31.1"/>
					</g>
				</g>
				<g>
					<g>
						<rect x="784.3" y="366.2" fill="#778796" width="2.9" height="31.1"/>
					</g>
				</g>
				<g>
					<g>
						<rect x="772.3" y="366.2" fill="#778796" width="2.9" height="31.1"/>
					</g>
				</g>
				<g>
					<g>
						<rect x="760.4" y="366.2" fill="#778796" width="2.9" height="31.1"/>
					</g>
				</g>
				<g>
					<g>
						<rect x="748.5" y="366.2" fill="#778796" width="2.9" height="31.1"/>
					</g>
				</g>
				<g>
					<g>
						<rect x="736.5" y="366.2" fill="#778796" width="2.9" height="31.1"/>
					</g>
				</g>
				<g>
					<g>
						<rect x="724.6" y="366.2" fill="#778796" width="2.9" height="31.1"/>
					</g>
				</g>
				<g>
					<g>
						<rect x="712.7" y="366.2" fill="#778796" width="2.9" height="31.1"/>
					</g>
				</g>
			</g>
		</g>
	</g>
</g>
<rect x="-1" y="572.5" fill="#CCCAC2" width="902" height="3.5"/>
<rect x="458.7" y="572.5" fill="#CCCAC2" width="114.4" height="3.5"/>
<polygon opacity="0.4" fill="#ADADA5" points="526.8,588.9 457.5,576 561,576 572.2,576 655.2,588.9 "/>
<g>
	<g>
		<g>
			
				<rect x="980.6" y="364.8" transform="matrix(0.8618 0.5072 -0.5072 0.8618 326.0653 -462.279)" fill="#D3D3D3" width="61.6" height="5"/>
		</g>
		<g>
			
				<rect x="949.2" y="304" transform="matrix(0.856 0.517 -0.517 0.856 310.0326 -443.8236)" fill="#D3D3D3" width="5" height="61.2"/>
		</g>
		<polygon fill="#D0D0D0" points="984.9,549.1 963.3,546.1 963.3,459.6 972.3,426.6 984.9,426.6 		"/>
		<polygon opacity="0.7" fill="#ADADA5" points="963.3,516.6 968.8,514.3 968.8,493.1 984.9,488.5 984.9,484 963.3,484 		"/>
		<polygon opacity="0.7" fill="#ADADA5" points="984.9,523.1 968,525.6 968,549.7 963.3,550.4 963.3,519.3 984.9,519.3 		"/>
		<polygon fill="#FFE441" points="1018.9,320 1012.2,325.4 1009.3,331.2 1009.1,339.8 1015.1,342.7 1021.9,337.4 1024.7,331.6 
			1024.9,323 		"/>
		<polygon fill="#D0D0D0" points="984.9,439.4 963.3,436.4 963.3,349.9 972.3,317 984.9,317 		"/>
		<polygon opacity="0.7" fill="#ADADA5" points="971.2,321.1 973.1,320.6 984.9,322.6 984.9,317 972.3,317 		"/>
		<g>
			<g>
				<polygon fill="#848484" points="741.5,355.7 740.7,354.1 757.3,346 757.3,255.9 759.1,255.9 759.1,347 				"/>
			</g>
			<g>
				<polygon fill="#848484" points="785.7,355.6 768.1,346.2 768.1,251.5 769.8,251.5 769.8,345.2 786.5,354.1 				"/>
			</g>
			<rect x="916.3" y="553.7" fill="#4F5056" width="115.8" height="5.7"/>
			<g>
				<path fill="#898E92" d="M1041.4,554.6l-132.5,0l-3.7-7.6l66.5-85.6l7.5,0l66,85.6L1041.4,554.6z M918.5,545.1h113.3L975.4,472
					L918.5,545.1z"/>
			</g>
			<g>
				
					<rect x="993" y="506.7" transform="matrix(0.9093 0.4161 -0.4161 0.9093 310.8641 -366.7907)" fill="#898E92" width="8" height="46.3"/>
			</g>
			<g>
				
					<rect x="926.4" y="524.2" transform="matrix(0.416 0.9093 -0.9093 0.416 1035.8561 -556.6938)" fill="#898E92" width="50" height="8"/>
			</g>
			<polygon fill="#ADADA5" points="944.4,404 862.1,231.8 873.1,230 963.3,394.2 963.3,412.3 			"/>
			<polygon fill="#D0D0D0" points="864.5,232.9 873.9,227.1 955.7,378.2 965.3,378.4 965.3,407.2 946.7,400.6 			"/>
			<polygon opacity="0.4" fill="#ADADA5" points="872.1,223.7 861,229.7 869.7,247.6 878.5,235.5 			"/>
			<rect x="951.5" y="461.6" fill="#898E92" width="47.3" height="22.4"/>
			<rect x="957.2" y="436.1" fill="#46474B" width="36" height="25.6"/>
			<g>
				
					<rect x="877" y="265.4" transform="matrix(0.6798 0.7334 -0.7334 0.6798 497.0165 -602.5747)" fill="#D3D3D3" width="123.1" height="5"/>
			</g>
			<rect x="943.8" y="454.1" fill="#FFE441" width="62.8" height="10.7"/>
			<rect x="956.7" y="345.9" fill="#D0D0D0" width="34.9" height="5.7"/>
			<rect x="956.8" y="513.8" fill="#898E92" width="34.9" height="5.7"/>
			<polygon fill="#898E92" points="908.6,582.1 920.9,582.1 926.5,550.9 908.9,550.9 			"/>
			<polygon fill="#898E92" points="1028.9,582.1 1041.2,582.1 1040.8,550.9 1023.2,550.9 			"/>
			<polygon opacity="0.4" fill="#ADADA5" points="998.9,470.5 961.7,470.5 958.7,481.8 951.5,481.8 951.5,464.8 998.9,464.8 			"/>
		</g>
		<polygon fill="#4E4E4C" points="1024.7,331.9 980.8,310.2 977.4,306.1 967.4,300.7 963.9,304.2 959.6,303.2 957.7,307.6 
			961.6,310.1 962.4,315.4 972,318.9 976.8,318.7 1022,337.2 		"/>
		<path fill="#686A76" d="M1070.2,380.8c2.2,0,4,1.8,4,4V422c0,2.2-1.7,4.5-3.8,5.2l-23.8,7.6c-2.1,0.7-5.6,1.2-7.8,1.2h-42.6
			c-2.2,0-3.9-1.8-3.9-4l1.5-47.3c0.1-2.2,1.9-4,4.1-4H1070.2z"/>
		<g>
			<path fill="#FFE441" d="M919.9,423l5.2,13.3c0,0,1,4,4.9,4c3.5,0,25.3,0,25.3,0h1.7V403c0,0,0.2-3.1-3.5-3.1
				c-8.1,0-27.9,0-30.7,0c-4.2,0-4.2,4-4.2,4v6.3l0.9,11.1v0.9L919.9,423z"/>
			<g opacity="0.3">
				<polygon fill="#D0D0D0" points="937.7,438.1 929.8,438.1 945.9,401.9 953.9,401.9 				"/>
			</g>
			<g>
				<g>
					<path fill-rule="evenodd" clip-rule="evenodd" fill="#537197" d="M926.9,439.3c-0.4,0-0.7-0.4-0.7-0.5l-6.6-16.8v-16.3h18v33.6
						H926.9z"/>
					<path fill="#FFE441" d="M936.6,406.7v17.9v13.7h-9.5l-6.5-16.4v-15.1H936.6L936.6,406.7z M938.6,404.7h-20v17.5l6.7,17
						c0,0,0.5,1,1.6,1c5.3,0,11.6,0,11.6,0v-15.7V404.7L938.6,404.7z"/>
				</g>
			</g>
			<g opacity="0.3">
				<polygon fill-rule="evenodd" clip-rule="evenodd" fill="#4B8DBD" points="936.5,417.1 926.8,437.7 924.4,431.7 936.5,407.4 				
					"/>
			</g>
		</g>
		<polygon opacity="0.7" fill="#ADADA5" points="993.2,443.5 957.2,446.9 957.2,439.1 993.2,439.1 		"/>
		<polygon opacity="0.7" fill="#ADADA5" points="963.3,433.3 984.9,436.7 984.9,428.9 963.3,428.9 		"/>
		<polygon opacity="0.7" fill="#ADADA5" points="963.3,354.1 984.9,356.5 984.9,351.6 963.3,351.6 		"/>
		<rect x="951.5" y="481.2" fill="#4F5056" width="47.3" height="2.8"/>
		<rect x="985.1" y="454.1" opacity="0.5" fill="#D0D0D0" width="16.1" height="10.7"/>
		<rect x="977.9" y="345.9" opacity="0.9" fill="#4B8DBD" width="13.5" height="5.7"/>
		<path fill="#FFE441" d="M1070.2,379c2.2,0,4,1.8,4,4v37.2c-1,2-1.7,3.5-3.8,4.2l-23.8,7.6c-2.1,0.7-5.6,1.2-7.8,1.2h-42.6
			c-2.2,0-4,2.2-4,0V383c0-2.2,1.8-4,4-4H1070.2z"/>
		<path fill="#898E92" stroke="#898E92" stroke-width="0.8551" stroke-miterlimit="10" d="M992.2,432.3c0,2.2,1.8,1,4,1h42.6
			c2.2,0,5.7-0.5,7.8-1.2l23.8-7.6c2.1-0.7,3.4-3,3.4-5.2h-81.5V432.3z"/>
		<path opacity="0.3" fill="#D0D0D0" d="M998.6,379h-2.4c-2.2,0-4,1.8-2.3,4v37.2h4.7V379z"/>
		<g>
			<g opacity="0.4">
				<rect x="992.2" y="386.7" fill="#ADADA5" width="82" height="2"/>
			</g>
			<g opacity="0.4">
				<rect x="992.2" y="397" fill="#ADADA5" width="82" height="2"/>
			</g>
			<g opacity="0.4">
				<rect x="992.2" y="407.3" fill="#ADADA5" width="82" height="2"/>
			</g>
			<g opacity="0.4">
				<rect x="992.2" y="417.7" fill="#ADADA5" width="82" height="2"/>
			</g>
		</g>
		<path fill="#B0B4B7" d="M991.7,418.8v3h82.5c0-1,0-1,0-2v-1H991.7z"/>
		<polygon opacity="0.3" fill="#D0D0D0" points="1038.1,386.7 1024.3,386.7 1028,379 1041.8,379 		"/>
		<polygon opacity="0.3" fill="#D0D0D0" points="1033.2,396.7 1019.4,396.7 1023.1,389 1036.9,389 		"/>
		<polygon opacity="0.3" fill="#D0D0D0" points="1028.3,407.1 1014.5,407.1 1018.2,399.5 1032,399.5 		"/>
		<polygon opacity="0.3" fill="#D0D0D0" points="1023.4,417.2 1009.6,417.2 1013.3,409.6 1027.2,409.6 		"/>
		<rect x="944.7" y="433.4" fill="#FFE441" width="93.4" height="6.8"/>
		<polygon fill="#F0CA29" points="1038.1,440.3 983.1,440.3 988.3,433.4 1038.1,433.4 		"/>
		<g>
			<rect x="991.9" y="433.4" fill="#686A76" width="46.2" height="2.7"/>
			<path fill="#686A76" d="M1038.5,436.5h-47.1V433h47.1V436.5z M992.3,435.7h45.4v-1.8h-45.4V435.7z"/>
		</g>
		<g opacity="0.3">
			<path fill="#D0D0D0" d="M920.6,422.1v-18.2c0-0.9,0.4-2,2.2-2c2.8,0,22.5,0,30.7,0c0.6,0,1,0.1,1.2,0.3c0.2,0.2,0.2,0.7,0.3,0.7
				l0,0v0.1v33.2l2,4.1V403c0,0,0.2-3.1-3.5-3.1c-8.1,0-27.9,0-30.7,0l0,0c-4.2,0-4.2,4-4.2,4v18.3H920.6z"/>
		</g>
		<rect x="917.9" y="412.1" fill="#FFE441" width="20.7" height="1.9"/>
		<rect x="956.8" y="513.8" fill="#ADADA5" width="24.6" height="5.7"/>
		<path fill="#FFE441" d="M904,228.1c4.2-3.6,4.7-9.9,1.2-14.1c-3.6-4.2-9.9-4.7-14.1-1.2c-4.2,3.6-4.8,9.9-1.2,14.1
			C893.5,231.1,899.8,231.7,904,228.1z"/>
		<polygon fill="#FFE441" points="894.3,214.6 853.7,212.6 761.3,248.2 760.2,257.4 898.3,227.3 902.4,215.9 		"/>
		<path fill="#F0CA29" d="M774.1,254.4c0.2-2.7-0.7-5.5-2.6-7.7c-0.6-0.7-1.2-1.2-1.9-1.7l-8.4,3.2l-1.2,9.2L774.1,254.4z"/>
		<path fill="#D0D0D0" d="M899.5,222.7c1.3-1.1,1.4-3,0.4-4.3c-1.1-1.3-3-1.4-4.3-0.4c-1.3,1.1-1.4,3-0.4,4.3
			C896.3,223.7,898.2,223.8,899.5,222.7z"/>
		<path fill="#FFE441" d="M769.3,260.9c3.9-3.3,4.4-9.2,1.1-13.1c-3.3-3.9-9.2-4.4-13.1-1.1c-3.9,3.3-4.4,9.2-1.1,13.1
			C759.5,263.7,765.4,264.2,769.3,260.9z"/>
		<path fill="#D0D0D0" d="M766,256.9c1.8-1.5,2-4.1,0.5-5.9c-1.5-1.8-4.1-2-5.9-0.5c-1.8,1.5-2,4.1-0.5,5.9
			C761.6,258.2,764.2,258.4,766,256.9z"/>
	</g>
	<polygon fill="#FFE441" points="773.5,347.2 753.1,347.4 753.1,341.7 773.5,341.5 	"/>
</g>
<g>
	<polygon fill="#ADADA5" points="602.9,490.8 605.6,494.3 617.5,494.3 614.8,490.8 	"/>
	<polygon fill="#ADADA5" points="572.3,490.8 569.5,494.3 581.5,494.3 584.2,490.8 	"/>
</g>
<g opacity="0.28">
	
		<image overflow="visible" opacity="3.000000e-02" width="243" height="131" xlink:href="47253F7B6F9B78E6.png"  transform="matrix(0.24 0 0 0.24 731.4696 365.4062)">
	</image>
	<g>
		<g>
			<path d="M747.3,377.3c0.6,0.2,1.1,0.4,1.5,0.7l-0.8,1.5c-0.4-0.3-0.9-0.5-1.4-0.6c-0.5-0.1-1-0.2-1.4-0.2c-0.4,0-0.8,0.1-1,0.2
				c-0.2,0.2-0.4,0.4-0.4,0.7s0.1,0.6,0.4,0.7c0.3,0.2,0.8,0.4,1.5,0.6c0.6,0.2,1.2,0.4,1.6,0.6c0.4,0.2,0.8,0.5,1.1,0.9
				c0.3,0.4,0.5,0.9,0.5,1.5c0,0.9-0.4,1.6-1.1,2.1c-0.7,0.5-1.6,0.7-2.6,0.7c-0.7,0-1.4-0.1-2.1-0.3c-0.7-0.2-1.3-0.6-1.7-1
				l0.7-1.5c0.4,0.4,0.9,0.6,1.5,0.9c0.6,0.2,1.2,0.3,1.7,0.3c0.5,0,0.8-0.1,1.1-0.2c0.3-0.2,0.4-0.4,0.4-0.8c0-0.3-0.1-0.5-0.3-0.7
				c-0.2-0.2-0.4-0.3-0.6-0.4c-0.3-0.1-0.6-0.2-1.1-0.4c-0.6-0.2-1.2-0.4-1.5-0.6c-0.4-0.2-0.7-0.5-1-0.8c-0.3-0.4-0.4-0.9-0.4-1.5
				c0-0.9,0.3-1.6,1-2.1c0.7-0.5,1.5-0.7,2.5-0.7C746.1,377.1,746.7,377.2,747.3,377.3z"/>
			<path d="M758.1,378.4c0.7,0.8,1.1,2,1.1,3.6c0,0.2,0,0.4,0,0.8h-7.2c0.2,0.7,0.5,1.3,1,1.8c0.5,0.4,1.2,0.6,1.9,0.6
				c0.5,0,1-0.1,1.5-0.3c0.5-0.2,0.9-0.5,1.2-0.8l1.1,1.2c-0.5,0.5-1.1,0.9-1.7,1.2c-0.7,0.3-1.4,0.4-2.2,0.4c-1,0-1.8-0.2-2.6-0.6
				c-0.7-0.4-1.3-1-1.7-1.7c-0.4-0.7-0.6-1.6-0.6-2.5c0-0.9,0.2-1.8,0.6-2.5c0.4-0.7,1-1.3,1.7-1.7c0.7-0.4,1.6-0.6,2.5-0.6
				C756.2,377.1,757.3,377.5,758.1,378.4z M756.6,379.4c-0.5-0.4-1.1-0.7-1.9-0.7c-0.8,0-1.4,0.2-1.9,0.7c-0.5,0.4-0.8,1-0.9,1.8
				h5.5C757.3,380.5,757.1,379.9,756.6,379.4z"/>
			<path d="M781.7,386.7h-2.1v-1.6c-0.3,0.6-0.8,1-1.4,1.3c-0.6,0.3-1.2,0.4-2,0.4c-0.9,0-1.7-0.2-2.4-0.6c-0.7-0.4-1.2-1-1.6-1.7
				c-0.4-0.7-0.6-1.6-0.6-2.5c0-0.9,0.2-1.8,0.6-2.5c0.4-0.7,0.9-1.3,1.6-1.7c0.7-0.4,1.5-0.6,2.4-0.6c0.8,0,1.4,0.2,2,0.5
				c0.6,0.3,1,0.7,1.4,1.3v-5.4l2.1,2.2v7.1V386.7z M778.5,384.2c0.5-0.6,0.8-1.3,0.8-2.2c0-0.9-0.3-1.7-0.8-2.3
				c-0.5-0.6-1.2-0.9-2.1-0.9c-0.9,0-1.6,0.3-2.1,0.9c-0.5,0.6-0.8,1.3-0.8,2.3c0,0.9,0.3,1.7,0.8,2.2c0.5,0.6,1.2,0.9,2.1,0.9
				C777.3,385.1,778,384.8,778.5,384.2z"/>
			<path d="M769.2,378.1c0.6,0.7,0.9,1.6,0.9,2.7v5.9h-2.1v-5.4c0-0.7-0.2-1.3-0.6-1.7c-0.4-0.4-1-0.6-1.7-0.6
				c-0.8,0-1.4,0.3-1.9,0.7c-0.5,0.5-0.8,1.1-0.8,1.9v5.1l-2.1-2.2v-3.7c0-0.8,1.6-3.8,5.2-3.9C767.3,376.9,768.5,377.4,769.2,378.1
				z"/>
		</g>
	</g>
</g>
</svg>
