<?xml version="1.0" encoding="utf-8"?>
<!-- Generator: Adobe Illustrator 18.0.0, SVG Export Plug-In . SVG Version: 6.00 Build 0)  -->
<!DOCTYPE svg PUBLIC "-//W3C//DTD SVG 1.1//EN" "http://www.w3.org/Graphics/SVG/1.1/DTD/svg11.dtd">
<svg version="1.1" id="Layer_1" xmlns="http://www.w3.org/2000/svg" xmlns:xlink="http://www.w3.org/1999/xlink" x="0px" y="0px"
	 width="100px" height="100px" viewBox="256.4 291.4 100 100" style="enable-background:new 256.4 291.4 100 100;"
	 xml:space="preserve">
<style type="text/css">
	.st0{fill:none;stroke:#FF5052;stroke-width:3.5;stroke-miterlimit:10;}
</style>
<path class="st0" d="M301.9,342.9c-0.8,0-1.4,0-2.1,0c-0.9,0-1.4-0.5-1.3-1.4c0-1.2,0.2-2.4,0.1-3.7c0-1.3-0.2-2.6-1-3.7
	c-0.8-1.2-2-1.8-3.3-2.2c-1.3-0.4-2.7-0.7-4.1-1c-1-0.2-1.4-1-0.9-1.9c0.3-0.5,0.5-0.9,0.8-1.4c0,0,0,0,0-0.2
	c-1.9-0.1-3.8-0.3-5.6-0.3c-3.1-0.1-6.2-0.2-9.3-0.3c-1.6-0.1-2.9-1.4-2.9-3.1c0-6.6,0-13.2,0-19.8c0-1.6,0.9-2.4,2.5-2.4
	c8.1,0.2,16.2,0.3,24.3,0.5c2.8,0.1,5.6,0.1,8.5,0.1c0.7,0,1.1,0.2,1.4,0.9c2.2,4.5,14.8,30.6,14.9,31c2.3,9.3,4.6,18.5,6.8,27.8
	c0.9,3.6,1.8,7.3,2.6,10.9c0.6,2.7-1.7,5.6-4.4,6c-2.9,0.4-5.7,0.9-8.5,1.3c-0.2,0-4.1,0.7-5.6,0.9c-1,0.1-2.1,0-3-0.3
	c-1.1-0.3-2.1-0.9-3-1.7c-1.2-1.2-1.8-2.7-1.8-4.4c0-2.1,0.1-4.3-0.1-6.4c-0.1-2.4-0.3-4.7-0.7-7.1c-0.3-1.8-1-3.5-1.6-5.1
	c-0.3-0.7-0.8-1.3-1.1-1.9c-0.5-1.2-1-2.4-1.1-3.7c-0.2-2.2-0.2-4.4-0.3-6.6C301.9,343.5,301.9,343.3,301.9,342.9z"/>
<line class="st0" x1="328.4" y1="329.1" x2="313.9" y2="300.5"/>
</svg>
