<svg width="52" height="34" viewBox="0 0 52 34" fill="none" xmlns="http://www.w3.org/2000/svg">
<path d="M34.514 1.67745V1.67751V6.09467V6.69467H35.114H43.7807C44.1737 6.69467 44.5359 6.90888 44.725 7.25272L48.5524 14.2118L48.7234 14.5226H49.0781H50.3227C50.9178 14.5226 51.4001 15.0049 51.4 15.6V15.6V27.5097C51.4 28.1052 50.9178 28.5871 50.3226 28.5871H47.8226H47.3637L47.2436 29.03C46.6229 31.3178 44.5272 33.0044 42.0474 33.0044C39.5681 33.0044 37.4721 31.3178 36.8514 29.0301L36.7312 28.5872H36.2723H16.7903H16.3314L16.2112 29.0301C15.5904 31.3178 13.4944 33.0044 11.0151 33.0044C8.53573 33.0044 6.43973 31.3178 5.81897 29.0301L5.6988 28.5872H5.23991H1.67741C1.08232 28.5872 0.6 28.1049 0.6 27.5098V1.67751C0.6 1.0823 1.08235 0.6 1.67741 0.6H33.4366C34.0318 0.6 34.5141 1.08232 34.514 1.67745ZM43.3145 9.16035L43.1435 8.84949H42.7888H35.114H34.514V9.44949V13.9226V14.5226H35.114H45.2489H46.2636L45.7746 13.6335L43.3145 9.16035ZM35.114 16.6774H34.514V17.2774V25.8324V26.4324H35.114H36.338H36.7784L36.9104 26.0122C37.5969 23.8271 39.6418 22.2393 42.0474 22.2393C44.453 22.2393 46.4979 23.8271 47.1844 26.0121L47.3164 26.4323H47.7568H48.6452H49.2452V25.8323V17.2774V16.6774H48.6452H35.114ZM5.30562 26.4324H5.74603L5.87803 26.0122C6.5645 23.8271 8.60947 22.2393 11.0151 22.2393C13.4207 22.2393 15.4656 23.8271 16.1521 26.0122L16.2841 26.4324H16.7245H31.7592H32.3592V25.8324V3.35492V2.75492H31.7592H3.35482H2.75482V3.35492V25.8324V26.4324H3.35482H5.30562ZM38.8195 27.6216C38.8195 29.4018 40.2668 30.849 42.0474 30.849C43.828 30.849 45.2754 29.4017 45.2753 27.6215C45.2753 25.8416 43.8281 24.3936 42.0474 24.3936C40.2667 24.3936 38.8195 25.8409 38.8195 27.6216ZM7.78715 27.6216C7.78715 29.4018 9.23448 30.849 11.0151 30.849C12.795 30.849 14.243 29.4018 14.243 27.6216C14.243 25.8416 12.7958 24.3936 11.0151 24.3936C9.23441 24.3936 7.78715 25.8409 7.78715 27.6216Z" fill="#0971CE" stroke="#F5F6F9" stroke-width="1.2"/>
</svg>
