<?xml version="1.0" encoding="utf-8"?>
<!-- Generator: Adobe Illustrator 18.0.0, SVG Export Plug-In . SVG Version: 6.00 Build 0)  -->
<!DOCTYPE svg PUBLIC "-//W3C//DTD SVG 1.1//EN" "http://www.w3.org/Graphics/SVG/1.1/DTD/svg11.dtd">
<svg version="1.1" id="Layer_1" xmlns="http://www.w3.org/2000/svg" xmlns:xlink="http://www.w3.org/1999/xlink" x="0px" y="0px"
	 width="765.6px" height="513.6px" viewBox="0 0 765.6 513.6" enable-background="new 0 0 765.6 513.6" xml:space="preserve">
<g>
	<path fill="#303030" d="M686,239v128c0,4.4-3.6,8-8,8h-42c-15.2,0-28.3,10.7-31.4,25.6c-5.4,26.7-26.3,47.6-53,53
		c-36.8,7.5-72.7-16.2-80.2-53c-3-14.9-16.2-25.6-31.4-25.6H316c-15.2,0-28.3,10.7-31.4,25.6c-5.4,26.7-26.3,47.6-53,53
		c-36.8,7.5-72.7-16.2-80.2-53c-3-14.9-16.2-25.6-31.4-25.6H78c-4.4,0-8-3.6-8-8V87c0-4.4,3.6-8,8-8h528c6.6,0,12-5.4,12-12
		s-5.4-12-12-12H78c-17.7,0-32,14.3-32,32v280c0,17.7,14.3,32,32,32h42c3.8,0,7.1,2.7,7.8,6.4c10.2,49.8,58.8,81.9,108.5,71.7
		c36.1-7.4,64.4-35.6,71.7-71.7c0.8-3.7,4-6.4,7.8-6.4h124c3.8,0,7.1,2.7,7.8,6.4c10.2,49.8,58.8,81.9,108.5,71.7
		c36.1-7.4,64.4-35.6,71.7-71.7c0.8-3.7,4-6.4,7.8-6.4h42c17.7,0,32-14.3,32-32V239c0-6.6-5.4-12-12-12C691.4,227,686,232.4,686,239
		z"/>
</g>
</svg>
