<?xml version="1.0" encoding="utf-8"?>
<!-- Generator: Adobe Illustrator 18.0.0, SVG Export Plug-In . SVG Version: 6.00 Build 0)  -->
<!DOCTYPE svg PUBLIC "-//W3C//DTD SVG 1.1//EN" "http://www.w3.org/Graphics/SVG/1.1/DTD/svg11.dtd">
<svg version="1.1" id="Layer_1" xmlns="http://www.w3.org/2000/svg" xmlns:xlink="http://www.w3.org/1999/xlink" x="0px" y="0px"
	 width="40px" height="35px" viewBox="0 0 40 35" enable-background="new 0 0 40 35" xml:space="preserve">
<path fill="none" stroke="#FF5052" stroke-width="1.5" d="M11.5,9.9c0.7,0.1,1.5,0.5,2.2,1.1c0.8,0.7,1.5,1.6,2.2,2.8
	c1.3,2.3,2.2,5.4,2.5,8.3c0.2,3-0.3,5.7-1.7,7.7c-1.4,1.9-3.7,3-7.5,2.6c-3.8-0.4-5.9-2-6.8-4.1c-1-2.2-0.9-5-0.1-7.8
	c0.8-2.8,2.4-5.6,4.1-7.6c0.9-1,1.8-1.8,2.7-2.3C10,10,10.8,9.8,11.5,9.9z"/>
<path fill="none" stroke="#FF5052" stroke-width="1.5" d="M27.7,9.9c0.7-0.1,1.5,0.1,2.4,0.6c0.9,0.5,1.8,1.3,2.7,2.3
	c1.8,2,3.3,4.8,4.1,7.6c0.8,2.9,0.9,5.7-0.1,7.8c-1,2.1-3,3.7-6.8,4.1c-3.8,0.4-6.1-0.8-7.5-2.6c-1.4-1.9-1.9-4.7-1.7-7.7
	c0.2-3,1.1-6,2.5-8.3c0.7-1.2,1.4-2.1,2.2-2.8C26.3,10.3,27,10,27.7,9.9z"/>
<path fill="none" stroke="#FF5052" stroke-width="1.5" stroke-linecap="round" stroke-linejoin="round" d="M19.7,1.3v12 M19.7,13.4
	l-7.1,4.1 M19.7,13.4l6.8,4.1 M12.6,17.5l-2.2,5.7 M12.6,17.5 M12.6,17.5H6.8 M10.4,23.2l2.2,4.6 M10.4,23.2l-4.9,1.6 M26.5,17.5
	l2.2,5.7 M26.5,17.5 M26.5,17.5h5.7 M28.7,23.2l-2.2,4.6 M28.7,23.2l4.9,1.6"/>
</svg>
