<svg width="40" height="46" viewBox="0 0 40 46" fill="none" xmlns="http://www.w3.org/2000/svg">
<path d="M20.1287 12.5394L19.9998 12.4955L19.8709 12.5394L18.8692 12.8803L18.8692 12.8803L6.41001 17.1207V9.29148H33.5891V17.1206L21.1303 12.8803L21.1302 12.8803L20.1287 12.5394Z" stroke="#0971CE" stroke-width="0.8"/>
<path d="M26.9457 42.4474L26.9457 42.4474L26.919 42.4664C26.6676 42.6453 26.4102 42.8284 26.1132 42.9559C25.7856 43.0964 25.4384 43.1597 24.999 43.1597C24.5596 43.1597 24.2123 43.0964 23.8847 42.9559C23.5875 42.8284 23.33 42.6452 23.0785 42.4662L23.0521 42.4474L23.052 42.4474C22.3819 41.9708 21.5536 41.3818 19.9989 41.3818C18.4443 41.3818 17.6161 41.9708 16.9459 42.4474L16.9459 42.4474C16.937 42.4538 16.9281 42.4601 16.9192 42.4664C16.6678 42.6453 16.4104 42.8284 16.1134 42.9559C15.7858 43.0964 15.4386 43.1597 14.9992 43.1597C14.5598 43.1597 14.2126 43.0964 13.8849 42.9559C13.5878 42.8284 13.3302 42.645 13.0787 42.4661C13.07 42.4598 13.0612 42.4536 13.0525 42.4474H26.9457ZM26.9457 42.4474C27.6159 41.9708 28.4442 41.3818 29.9988 41.3818C31.5536 41.3818 32.382 41.9707 33.0521 42.4472M26.9457 42.4474L33.3998 41.9583L33.0521 42.4472M36.5988 41.9583L36.9465 42.4472L36.9203 42.4659C36.6687 42.6449 36.411 42.8283 36.1137 42.9558C35.786 43.0963 35.4388 43.1596 34.9993 43.1596C34.5599 43.1596 34.2126 43.0963 33.8849 42.9558C33.5876 42.8283 33.33 42.6449 33.0784 42.4659L33.0521 42.4472M36.5988 41.9583L33.0521 42.4472M36.5988 41.9583L36.9465 42.4472C37.5247 42.0361 38.2209 41.5411 39.4 41.4131V43.3399C39.2176 43.3733 39.0492 43.4242 38.8856 43.4943C38.5883 43.6218 38.3307 43.8052 38.0791 43.9842L38.0529 44.0028L38.0528 44.0029C37.3826 44.4793 36.5542 45.0683 34.9995 45.0683C33.4447 45.0683 32.6163 44.4794 31.9462 44.0029C31.9462 44.0029 31.9462 44.0029 31.9462 44.0029L31.92 43.9842C31.6683 43.8052 31.4107 43.6218 31.1134 43.4943C30.7857 43.3538 30.4384 43.2905 29.999 43.2905C29.5596 43.2905 29.2124 43.3538 28.8847 43.4944C28.5877 43.6218 28.3301 43.805 28.0787 43.9839L28.0522 44.0028L28.0521 44.0028C27.3821 44.4794 26.5538 45.0684 24.9992 45.0684C23.4445 45.0684 22.6162 44.4794 21.9461 44.0028L21.946 44.0028L21.9196 43.984C21.6681 43.805 21.4105 43.6218 21.1134 43.4943C20.7858 43.3538 20.4385 43.2905 19.9991 43.2905C19.5597 43.2905 19.2125 43.3538 18.8849 43.4944C18.5879 43.6218 18.3303 43.8051 18.0789 43.984C18.0701 43.9902 18.0613 43.9965 18.0525 44.0028C17.3824 44.4793 16.5541 45.0684 14.9995 45.0684C13.4449 45.0684 12.6167 44.4794 11.9465 44.0028L36.5988 41.9583ZM6.94655 42.4474L6.94648 42.4474C6.93758 42.4538 6.92868 42.4601 6.91977 42.4664C6.66843 42.6453 6.41096 42.8284 6.11401 42.9559C5.78637 43.0964 5.43917 43.1597 4.99976 43.1597C4.56039 43.1597 4.21317 43.0964 3.88553 42.9559C3.58835 42.8284 3.33077 42.645 3.07931 42.4661C3.07057 42.4599 3.06185 42.4536 3.05312 42.4474C3.05311 42.4474 3.05309 42.4474 3.05307 42.4474C3.05306 42.4474 3.05305 42.4474 3.05305 42.4474L3.05301 42.4474C2.47472 42.0362 1.77871 41.5412 0.6 41.4132V43.34C0.782301 43.3734 0.950704 43.4243 1.11423 43.4944C1.41137 43.6219 1.66895 43.8052 1.92041 43.9841L6.94655 42.4474ZM6.94655 42.4474C7.61658 41.9708 8.44488 41.3818 9.99951 41.3818C11.5541 41.3818 12.3823 41.9708 13.0525 42.4474L6.94655 42.4474ZM4.99976 45.0684C3.44513 45.0684 2.61682 44.4794 1.94676 44.0029L11.9465 44.0028C11.9377 43.9966 11.929 43.9904 11.9202 43.9841C11.6688 43.8052 11.4112 43.6218 11.114 43.4944C10.7864 43.3538 10.4392 43.2905 9.99979 43.2905C9.56034 43.2905 9.21311 43.3538 8.88544 43.4943C8.58838 43.6218 8.33086 43.805 8.07946 43.9839C8.07059 43.9902 8.06173 43.9965 8.05288 44.0028L8.05284 44.0028C7.38269 44.4794 6.55438 45.0684 4.99976 45.0684Z" fill="#0971CE" stroke="white" stroke-width="1.2"/>
<path d="M21.1526 2.38341V2.78341H21.5526H28.6137V6.38275H11.4864V2.78341H18.4439H18.8439V2.38341V0.4H21.1526V2.38341Z" stroke="#0971CE" stroke-width="0.8"/>
<path d="M7.44048 37.6284L1.15872 22.0376L18.0466 16.2899V37.4767C16.6658 37.7738 15.6763 38.3418 15.0004 38.7961C14.037 38.1479 12.4491 37.2729 10.0007 37.2729C9.01507 37.2729 8.16676 37.4147 7.44048 37.6284Z" stroke="#0971CE" stroke-width="0.8"/>
<path d="M24.9958 38.7961C24.3203 38.3421 23.3313 37.7742 21.9511 37.477V16.2897L38.8443 22.0392L32.4926 37.611C31.7805 37.4074 30.9535 37.2728 29.9957 37.2728C27.5472 37.2728 25.9591 38.1479 24.9958 38.7961Z" stroke="#0971CE" stroke-width="0.8"/>
</svg>
