<svg width="40" height="44" viewBox="0 0 40 44" fill="none" xmlns="http://www.w3.org/2000/svg">
<path d="M20.1287 12.5394L19.9998 12.4955L19.8709 12.5394L18.8692 12.8803L18.8692 12.8803L6.41001 17.1207V9.29148H33.5891V17.1206L21.1303 12.8803L21.1302 12.8803L20.1287 12.5394Z" stroke="#0971CE" stroke-width="0.8"/>
<path d="M34.9993 42.5596C35.7531 42.5596 36.0535 42.346 36.5988 41.9583C37.297 41.4618 38.2534 40.7817 40 40.7817V41C38.2534 41 37.297 41.68 36.5988 42.1765C36.0535 42.5643 35.7531 42.7779 34.9993 42.7779C34.2456 42.7779 33.9451 42.5643 33.3998 42.1765C32.7016 41.68 31.7452 41.0001 29.9988 41.0001C28.2525 41.0001 27.2962 41.6801 26.598 42.1767C26.0531 42.5642 25.7524 42.778 24.999 42.778C24.2453 42.778 23.945 42.5644 23.3998 42.1767C22.7015 41.6801 21.7452 41.0001 19.9989 41.0001C18.2526 41.0001 17.2965 41.6801 16.5982 42.1767C16.0533 42.5642 15.7526 42.778 14.9992 42.778C14.2456 42.778 13.9453 42.5644 13.4002 42.1767C12.702 41.6801 11.7458 41.0001 9.99951 41.0001C8.2532 41.0001 7.29695 41.6801 6.59878 42.1767C6.05385 42.5642 5.75322 42.778 4.99976 42.778C4.24619 42.778 3.94584 42.5644 3.40082 42.1767C2.70258 41.6802 1.7461 41.0001 0 41.0001V40.7818C1.7461 40.7818 2.70233 41.4618 3.40057 41.9583C3.94559 42.3459 4.24619 42.5597 4.99976 42.5597C5.75322 42.5597 6.05342 42.3462 6.59835 41.9588C7.29652 41.4622 8.2532 40.7818 9.99951 40.7818C11.7458 40.7818 12.702 41.4618 13.4002 41.9585C13.9453 42.3461 14.2456 42.5597 14.9992 42.5597C15.7526 42.5597 16.0528 42.3462 16.5978 41.9588C17.296 41.4622 18.2526 40.7818 19.9989 40.7818C21.7452 40.7818 22.7015 41.4618 23.3998 41.9585C23.9449 42.3461 24.2453 42.5597 24.999 42.5597C25.7524 42.5597 26.0526 42.3462 26.5976 41.9588C27.2958 41.4622 28.2525 40.7818 29.9988 40.7818C31.7452 40.7818 32.7016 41.4618 33.3998 41.9583C33.9451 42.346 34.2456 42.5596 34.9993 42.5596Z" fill="#0971CE"/>
<path d="M34.9993 42.7779C35.7531 42.7779 36.0535 42.5643 36.5988 42.1765C37.297 41.68 38.2534 41 40 41V41.2183C38.2534 41.2183 37.297 41.8983 36.5988 42.3948C36.0535 42.7826 35.7531 42.9961 34.9993 42.9961C34.2456 42.9961 33.9451 42.7826 33.3998 42.3948C32.7016 41.8983 31.7452 41.2184 29.9988 41.2184C28.2525 41.2184 27.2962 41.8984 26.598 42.395C26.0531 42.7825 25.7524 42.9962 24.999 42.9962C24.2453 42.9962 23.945 42.7827 23.3998 42.395C22.7015 41.8984 21.7452 41.2184 19.9989 41.2184C18.2526 41.2184 17.2965 41.8984 16.5982 42.395C16.0533 42.7825 15.7526 42.9962 14.9992 42.9962C14.2456 42.9962 13.9453 42.7827 13.4002 42.395C12.702 41.8984 11.7458 41.2184 9.99951 41.2184C8.2532 41.2184 7.29695 41.8984 6.59878 42.395C6.05385 42.7825 5.75322 42.9962 4.99976 42.9962C4.24619 42.9962 3.94584 42.7827 3.40082 42.395C2.70258 41.8985 1.7461 41.2184 0 41.2184V41.0001C1.7461 41.0001 2.70258 41.6802 3.40082 42.1767C3.94584 42.5644 4.24619 42.778 4.99976 42.778C5.75322 42.778 6.05385 42.5642 6.59878 42.1767C7.29695 41.6801 8.2532 41.0001 9.99951 41.0001C11.7458 41.0001 12.702 41.6801 13.4002 42.1767C13.9453 42.5644 14.2456 42.778 14.9992 42.778C15.7526 42.778 16.0533 42.5642 16.5982 42.1767C17.2965 41.6801 18.2526 41.0001 19.9989 41.0001C21.7452 41.0001 22.7015 41.6801 23.3998 42.1767C23.945 42.5644 24.2453 42.778 24.999 42.778C25.7524 42.778 26.0531 42.5642 26.598 42.1767C27.2962 41.6801 28.2525 41.0001 29.9988 41.0001C31.7452 41.0001 32.7016 41.68 33.3998 42.1765C33.9451 42.5643 34.2456 42.7779 34.9993 42.7779Z" fill="#0971CE"/>
<path d="M34.9993 42.9778C35.7531 42.9778 36.0535 42.7642 36.5988 42.3765C37.297 41.88 38.2534 41.2 40 41.2V41.4182C38.2534 41.4182 37.297 42.0982 36.5988 42.5947C36.0535 42.9825 35.7531 43.1961 34.9993 43.1961C34.2456 43.1961 33.9451 42.9825 33.3998 42.5947C32.7016 42.0982 31.7452 41.4183 29.9988 41.4183C28.2525 41.4183 27.2962 42.0983 26.598 42.5949C26.0531 42.9824 25.7524 43.1962 24.999 43.1962C24.2453 43.1962 23.945 42.9826 23.3998 42.5949C22.7015 42.0983 21.7452 41.4183 19.9989 41.4183C18.2526 41.4183 17.2965 42.0983 16.5982 42.5949C16.0533 42.9824 15.7526 43.1962 14.9992 43.1962C14.2456 43.1962 13.9453 42.9826 13.4002 42.5949C12.702 42.0983 11.7458 41.4183 9.99951 41.4183C8.2532 41.4183 7.29695 42.0983 6.59878 42.5949C6.05385 42.9824 5.75322 43.1962 4.99976 43.1962C4.24619 43.1962 3.94584 42.9826 3.40082 42.5949C2.70258 42.0984 1.7461 41.4183 0 41.4183V41.2C1.7461 41.2 2.70233 41.88 3.40057 42.3765C3.94559 42.7642 4.24619 42.9779 4.99976 42.9779C5.75322 42.9779 6.05342 42.7645 6.59835 42.377C7.29652 41.8804 8.2532 41.2 9.99951 41.2C11.7458 41.2 12.702 41.8801 13.4002 42.3767C13.9453 42.7643 14.2456 42.9779 14.9992 42.9779C15.7526 42.9779 16.0528 42.7645 16.5978 42.377C17.296 41.8804 18.2526 41.2 19.9989 41.2C21.7452 41.2 22.7015 41.8801 23.3998 42.3767C23.9449 42.7643 24.2453 42.9779 24.999 42.9779C25.7524 42.9779 26.0526 42.7645 26.5976 42.377C27.2958 41.8804 28.2525 41.2 29.9988 41.2C31.7452 41.2 32.7016 41.88 33.3998 42.3765C33.9451 42.7642 34.2456 42.9778 34.9993 42.9778Z" fill="#0971CE"/>
<path d="M34.9993 43.0779C35.7531 43.0779 36.0535 42.8643 36.5988 42.4766C37.297 41.9801 38.2534 41.3 40 41.3V41.5183C38.2534 41.5183 37.297 42.1983 36.5988 42.6948C36.0535 43.0826 35.7531 43.2962 34.9993 43.2962C34.2456 43.2962 33.9451 43.0826 33.3998 42.6948C32.7016 42.1983 31.7452 41.5184 29.9988 41.5184C28.2525 41.5184 27.2962 42.1984 26.598 42.695C26.0531 43.0825 25.7524 43.2963 24.999 43.2963C24.2453 43.2963 23.945 43.0827 23.3998 42.695C22.7015 42.1984 21.7452 41.5184 19.9989 41.5184C18.2526 41.5184 17.2965 42.1984 16.5982 42.695C16.0533 43.0825 15.7526 43.2963 14.9992 43.2963C14.2456 43.2963 13.9453 43.0827 13.4002 42.695C12.702 42.1984 11.7458 41.5184 9.99951 41.5184C8.2532 41.5184 7.29695 42.1984 6.59878 42.695C6.05385 43.0825 5.75322 43.2963 4.99976 43.2963C4.24619 43.2963 3.94584 43.0827 3.40082 42.695C2.70258 42.1985 1.7461 41.5184 0 41.5184V41.3001C1.7461 41.3001 2.70233 41.9801 3.40057 42.4766C3.94559 42.8643 4.24619 43.078 4.99976 43.078C5.75322 43.078 6.05342 42.8646 6.59835 42.4771C7.29652 41.9805 8.2532 41.3001 9.99951 41.3001C11.7458 41.3001 12.702 41.9802 13.4002 42.4768C13.9453 42.8644 14.2456 43.078 14.9992 43.078C15.7526 43.078 16.0528 42.8646 16.5978 42.4771C17.296 41.9805 18.2526 41.3001 19.9989 41.3001C21.7452 41.3001 22.7015 41.9802 23.3998 42.4768C23.9449 42.8644 24.2453 43.078 24.999 43.078C25.7524 43.078 26.0526 42.8646 26.5976 42.4771C27.2958 41.9805 28.2525 41.3001 29.9988 41.3001C31.7452 41.3001 32.7016 41.9801 33.3998 42.4766C33.9451 42.8643 34.2456 43.0779 34.9993 43.0779Z" fill="#0971CE"/>
<path d="M21.1526 2.38341V2.78341H21.5526H28.6137V6.38275H11.4864V2.78341H18.4439H18.8439V2.38341V0.4H21.1526V2.38341Z" stroke="#0971CE" stroke-width="0.8"/>
<path d="M7.44048 37.6284L1.15872 22.0376L18.0466 16.2899V37.4767C16.6658 37.7738 15.6763 38.3418 15.0004 38.7961C14.037 38.1479 12.4491 37.2729 10.0007 37.2729C9.01507 37.2729 8.16676 37.4147 7.44048 37.6284Z" stroke="#0971CE" stroke-width="0.8"/>
<path d="M24.9958 38.7961C24.3203 38.3421 23.3313 37.7742 21.9511 37.477V16.2897L38.8443 22.0392L32.4926 37.611C31.7805 37.4074 30.9535 37.2728 29.9957 37.2728C27.5472 37.2728 25.9591 38.1479 24.9958 38.7961Z" stroke="#0971CE" stroke-width="0.8"/>
</svg>
