<?xml version="1.0" encoding="utf-8"?>
<!-- Generator: Adobe Illustrator 18.0.0, SVG Export Plug-In . SVG Version: 6.00 Build 0)  -->
<!DOCTYPE svg PUBLIC "-//W3C//DTD SVG 1.1//EN" "http://www.w3.org/Graphics/SVG/1.1/DTD/svg11.dtd">
<svg version="1.1" id="Layer_1" xmlns="http://www.w3.org/2000/svg" xmlns:xlink="http://www.w3.org/1999/xlink" x="0px" y="0px"
	 width="944px" height="328px" viewBox="0 0 944 328" enable-background="new 0 0 944 328" xml:space="preserve">
<g>
	<path fill="#0747A6" d="M141.9,97.3c13.5,4,25.3,9.4,35.1,16.2l-17.2,34.8c-9.6-6-20.1-10.7-31.4-14.1c-11.3-3.4-21.8-5.1-31.4-5.1
		c-9.9,0-17.7,1.8-23.3,5.3c-5.7,3.5-8.5,9-8.5,16.3c0,7.3,3.3,12.9,10,16.8c6.7,3.9,17.8,8.3,33.4,13.2
		c14.8,4.4,27.1,8.8,36.7,13.1c9.7,4.3,18,10.9,24.9,19.6s10.4,20.3,10.4,34.5c0,21.4-8,37.5-24,48.6S120.7,313,96.9,313
		c-16.4,0-32.5-2.7-48.2-8s-28.9-12.7-39.5-22.2L26,249.2c9.3,8.1,20.8,14.7,34.2,19.6c13.5,4.9,26.4,7.4,38.8,7.4
		c10.7,0,19.3-1.9,25.8-5.7c6.5-3.8,9.8-9.7,9.8-17.7c0-6-2-11-6-14.9s-8.9-7.1-14.6-9.4c-5.7-2.3-14.1-5.2-25-8.5
		c-14.5-4.4-26.4-8.7-35.4-12.9c-9.1-4.2-16.9-10.5-23.5-18.8c-6.6-8.3-9.9-19.5-9.9-33.3c0-20.8,7.7-36.6,23-47.5
		c15.3-10.8,34.5-16.2,57.5-16.2C114.6,91.3,128.3,93.3,141.9,97.3z"/>
	<path fill="#0747A6" d="M388.6,120.8c17.1,19.4,25.6,46.8,25.6,82c0,3.6-0.3,9.5-0.8,17.6h-165c3.9,17,11.8,30.3,23.8,40
		S298.8,275,316,275c11.7,0,23-2.2,33.6-6.6c10.7-4.4,20-10.7,27.8-18.8l25,26.6c-10.9,11.7-24.1,20.8-39.3,27.2
		c-15.3,6.4-32.2,9.6-50.8,9.6c-22.2,0-41.6-4.6-58.5-13.9c-16.8-9.3-29.9-22.3-39.1-38.9c-9.3-16.7-13.9-35.8-13.9-57.5
		c0-21.6,4.6-40.8,13.9-57.6c9.3-16.8,22.3-29.9,39.1-39.3c16.8-9.5,35.9-14.2,57.3-14.2C345.7,91.7,371.5,101.4,388.6,120.8z
		 M354.7,144.6c-10.9-10.1-25.3-15.1-43-15.1c-17.2,0-31.5,5-42.8,15.1s-18.4,23.9-21.2,41.3h124.7
		C371.6,168.5,365.7,154.7,354.7,144.6z"/>
	<path fill="#0747A6" d="M928.6,311.5h-47.1v-37.2c-7.9,12.8-18.3,22.6-31.3,29.2c-13,6.7-28.1,10-45.3,10
		c-20.8,0-39.1-4.7-54.8-14.1s-27.9-22.6-36.6-39.5c-8.7-16.9-13.1-36.4-13.1-58.3c0-21.6,4.4-40.8,13.1-57.5
		c8.7-16.7,21-29.7,36.6-38.9c15.7-9.3,33.7-13.9,54-13.9c17.5,0,32.7,3.4,45.6,10.3c12.9,6.9,23.6,16.7,31.8,29.5V7.2L928.6,57
		v162.5V311.5z M856.3,254.3c12.4-13.3,18.6-30.3,18.6-51.2c0-21.1-6.2-38.3-18.6-51.6c-12.4-13.3-28.5-20-48.3-20
		c-19.6,0-35.7,6.7-48.2,20.1s-18.9,30.6-19.1,51.6c0.3,20.8,6.6,37.9,19.1,51.2c12.5,13.3,28.5,19.9,48.2,19.9
		C827.8,274.3,843.9,267.6,856.3,254.3z"/>
	<path fill="#0747A6" d="M643,114.1c14.4,14.9,21.6,35.5,21.6,61.7v135.7h-47.2V189c0-16.4-4.6-29.4-13.9-38.8
		c-9.3-9.5-22.1-14.2-38.5-14.2c-17.5,0.3-31.8,5.9-42.8,16.8c-11.1,10.9-17.4,25.2-19,42.6v116.1L456,261.8v-85.1
		c0-17.9,36.3-86.1,119.1-88.6C600.3,87.4,628.6,99.1,643,114.1z"/>
</g>
</svg>
